<svg id="Шар_1" data-name="Шар 1" xmlns="http://www.w3.org/2000/svg" viewBox="0 0 3000 3000">
  <defs>
    <style>
      .cls-1 {
        fill: #1d396e;
      }

      .cls-2 {
        fill: #1c3964;
      }

      .cls-3 {
        fill: #5b1b16;
      }
    </style>
  </defs>
  <title>прометей</title>
  <g>
    <g>
      <path class="cls-1" d="M218.91468,2840.45906v-448.5h96.1v171.6001h195.4v-171.6001h96.1v448.5h-96.1v-197.3999h-195.5v197.3999Z"/>
      <path class="cls-1" d="M701.31468,2840.45906v-448.5h96.1v171.6001h195.4v-171.6001h96.1v448.5h-96.1v-197.3999h-195.5v197.3999Z"/>
      <path class="cls-1" d="M1400.81468,2840.45906v-448.5h96.1v448.5Z"/>
      <path class="cls-1" d="M1557.11472,2840.45906l165-448.5h105.30005l166.9,448.5h-102.7l-30.5-91.3999H1686.9149l-30.5,91.3999Zm156.29993-170.90015h121.2l-60.9-183.5Z"/>
      <path class="cls-1" d="M1971.01463,2471.45906v-79.5h361.10009v79.5h-132.5v369h-96.10009v-369Z"/>
      <path class="cls-1" d="M2392.31468,2840.45906v-448.5h324.60009v79.5H2488.31468v92.1001h188.8v79.5h-188.8v117.8999h228.60009v79.5Z"/>
    </g>
    <g>
      <path class="cls-2" d="M2668.21458,1749.059c-.19995,0-.3-.1-.5-.1A1.339,1.339,0,0,0,2668.21458,1749.059Z"/>
      <path class="cls-2" d="M2702.91477,1714.859a74.79866,74.79866,0,0,0-17.3-8.4,106.19129,106.19129,0,0,0-20-4.9,91.03171,91.03171,0,0,0-23.8999-.5,57.17171,57.17171,0,0,1-5.80005-2.1c-.19995-.1-.5-.19995-.69995-.30005-.5-.19995-.8999-.4-1.3999-.6-1.1001-.5-2.3-1.1-3.3999-1.69995a54.25178,54.25178,0,0,1-5.69995-3.5c-.89991-.6-1.80005-1.19995-2.7-1.9q-.59985-.45008-1.19995-.9a1.44087,1.44087,0,0,1-.30005-.19995l-.10009-.1a.098.098,0,0,0,.10009.1.098.098,0,0,1-.10009-.1.30986.30986,0,0,0-.19995-.1c-.1001-.1-.30005-.2-.30005-.30005a90.56083,90.56083,0,0,1-9.1001-8.4c-1.3-1.4-2.5-2.80005-3.69995-4.19995-.1001-.19995-.5-.69995-.6001-.9,0,.1.1001.19995.3.5-.19995-.30005-.5-.6-.69995-.9q-.75-1.04992-1.5-2.1c-.8999-1.4-1.80005-2.80005-2.6001-4.30005-.3-.6-.7-1.3-1-1.9-.1001-.19995-.1001-.4-.2-.6-.1001-.1-.1001-.19995-.19995-.3-.1001-.2-.2-.5-.30005-.7h0c-1.3-3.8-2.5-7.6-4-11.4a45.8326,45.8326,0,0,0-7.1001-12.3c-6.2-7.7-14.80005-14.2-24.6001-16.5a124.50021,124.50021,0,0,0-14.8-2.80005c-5.7-.69995-11.8-.1-17.39991.6a68.91812,68.91812,0,0,0-10.10009,1.80005,33.37733,33.37733,0,0,0-7.3,3.1,55.01736,55.01736,0,0,0-13.80005,10.69995,23.67075,23.67075,0,0,0-5.1001,8.1,28.75172,28.75172,0,0,0-1.2,9.19995,58.50494,58.50494,0,0,0,2.5,17.1,34.24677,34.24677,0,0,1-4.2,2.3c-.8.4-1.6001.80005-2.5,1.2-.5.19995-.8999.4-1.3999.6a6.32168,6.32168,0,0,1-.89991.4,1.09587,1.09587,0,0,1,.39991-.2c-1.7.80005-3.6001,1.4-5.3,2-3.6001,1.30005-7.30005,2.4-11,3.6-26.80005,1.6-53.39991,4.9-78.7,13.9a234.05613,234.05613,0,0,0-22.6001,9.4.098.098,0,0,0-.1001.1,160.548,160.548,0,0,0-38.5,22.7,122.464,122.464,0,0,0-16.2,16c-5.3,6.19995-10.3999,12.69995-15.7,18.9a156.51959,156.51959,0,0,1-17.5,18c-5.5-8-11.3-15.69995-17.5-23.19995a411.24469,411.24469,0,0,0-37.6001-39.4c0-.1.1001-.3.1001-.4a184.80165,184.80165,0,0,1,8.6001-28.3c.8999-2.4,1.8999-4.7,2.8-7a.098.098,0,0,1-.10009.1.30945.30945,0,0,1,.10009-.19995,2.01223,2.01223,0,0,1,.39991-.80005c.19995-.6.5-1.1.69995-1.69995.5-1.2,1.1001-2.4,1.6001-3.6,2.10009-4.69995,4.3-9.3,6.60009-13.9,9.39991-18.80005,20-37,29.80005-55.6,9.8-18.5,19.1001-37.6,25.3999-57.6,1.6001-5.1,3-10.19995,4.1001-15.4,1.3-5.6,2.3999-11.3,4-16.8.69995-2.6,1.8-5.7,2.6001-7.80005a64.23984,64.23984,0,0,1,3.5-6.9,70.14563,70.14563,0,0,1,4.3999-6.69995q.59985-.75,1.19995-1.5h0l.1001-.1c.2-.30005.3999-.5.6001-.80005.8999-1.1,1.8-2.1,2.69995-3.19995,7.3999-8.6,15.8999-16.30005,23.7-24.6,8.3-8.7,16.3-17.7,24.7-26.4,2.1001-2.2,4.19995-4.30005,6.3999-6.4l.1001-.1c12.5-5.9,24.8999-11.80005,36.8999-18.80005,12.39991-7.30005,24.39991-15.69995,34.6001-25.9a118.98473,118.98473,0,0,0,13.8999-16.9c2.1001-3.19995,4-6.5,5.8-9.8,1-1.80005,2-3.5,3.1001-5.30005a18.8153,18.8153,0,0,1,1.6001-2.30005q.29992-.45007.6001-.9h0q.15013-.15.3-.30005c0,.1-.10009.2-.19995.30005l.1001-.1a5.718,5.718,0,0,1,.69995-.80005c1-1.19995,2-2.19995,3.1001-3.3a17.38716,17.38716,0,0,0,1.5-1.30005.34955.34955,0,0,1,.2-.1h0c.1001-.1.3-.30005.3999-.30005,0,0-.10009.1-.2.19995a3.11774,3.11774,0,0,0,.6001-.4,55.82172,55.82172,0,0,1,7.1001-4.3c2.5-1.3,5.1001-2.5,7.69995-3.6h0a.30939.30939,0,0,0,.2-.1,3.54419,3.54419,0,0,0,.8999-.4c.7-.3,1.3999-.6,2-.8,1.3999-.6,2.7-1.1,4.1001-1.7,10.6001-4.4,22-9.4,28.2-19.69995a20.9674,20.9674,0,0,0,1.5-3,5.01816,5.01816,0,0,0,.8-4.19995c-2.1001-8.4-8.8999-14.30005-16.8-17.30005-8.5-3.30005-18-2.19995-26.5.69995q-.90015.29993-1.80005.6c-.19995-.1-.3-.2-.5-.2a156.30554,156.30554,0,0,0-14.8999-5.5,99.02719,99.02719,0,0,0-32-3,62.10851,62.10851,0,0,0-18,4.7,45.8173,45.8173,0,0,0-15.7,11.1,3.80606,3.80606,0,0,0-.8999,1.3c-.39991.1-.8.1-1.2.2a103.124,103.124,0,0,0-17.3,4.8c-12-6.19995-24.39991-11.8-37.39991-15.19995a96.94214,96.94214,0,0,0-23.3999-3.1c-7.3.1-15,1-21.8,3.80005-6.60009,2.69995-12.5,6.9-15.7,13.5a63.92047,63.92047,0,0,0-4.1001,10.19995,37.42942,37.42942,0,0,0-1.10009,10c-.39991,13.80005,1.5,27.69995,3.5,41.30005.10009.80005.2,1.5.3,2.30005-10.1001,8.1-20.6001,15.9-30.8,24-14.5,11.8-29.39991,24.6-39.1001,40.69995-5.3,8.80005-10.8,17.5-14.8999,26.9-.1001.19995-.2.5-.3.69995a91.6896,91.6896,0,0,0-12.8999,3.9c-19.3,7.30005-36.2,19.69995-49.89991,35.1s-24.3999,33.30005-33.30005,51.80005a254.07181,254.07181,0,0,0-18.8999,54.4,307.06759,307.06759,0,0,0-25.2-38.5,245.72256,245.72256,0,0,0-39.8-41.1,216.05252,216.05252,0,0,0-24.9-17.69995,154.528,154.528,0,0,0-28.19995-13.30005,156.119,156.119,0,0,0-59.4-8.6,167.27918,167.27918,0,0,0-60.19995,14.6c-2.30005,1-4.6,2.1-6.9,3.2a2.94929,2.94929,0,0,0-1.4,1.3c-7.80005-2.4-15.5-5-23.19995-7.9-3.4-1.30005-6.9-2.6-10.30005-4-.80005-.30005-1.6-.7-2.5-1a6.12156,6.12156,0,0,0-1.19995-.5h.1c-.30005-.1-.5-.2-.80005-.30005-1.80005-.69995-3.5-1.5-5.30005-2.30005-6.69995-3-13.4-6.19995-19.9-9.5-6.4-3.30005-12.69995-6.69995-18.9-10.30005a347.12193,347.12193,0,0,0-7.6-51.6,227.34,227.34,0,0,0-17.6-50.69995c-7.8-15.69995-17.9-30.4-28.9-44.19995-1.9-2.4-3.9-4.80005-5.9-7.1a138.11851,138.11851,0,0,0-.2-40.6,121.74712,121.74712,0,0,0-12.4-37.19995,115.11016,115.11016,0,0,0-10.6-16.69995q-3.29993-4.35-6.9-8.4-1.65-1.79993-3.3-3.6c-.2-.19995-.4-.5-.6-.69995l-.1-.1c0,.1.1.19995.2.3a.09792.09792,0,0,0-.1-.1,65.88831,65.88831,0,0,1-5.80005-10.4c-.5-1.1-1-2.19995-1.5-3.19995-.19995-.6-.5-1.1-.69995-1.69995v-.2c-.1-.3-.30005-.69995-.4-1-1-2.4-1.9-4.8-2.80005-7.19995-2-5.4-3.9-10.80005-5.5-16.30005-1.1-3.9-2.30005-8-3.1-12,0-28.9.5-57.69995,1-86.6.5-27.6,1-55.2,1.1-82.8.1-29.4-.4-58.9-1.69995-88.3-1.2-26.6-2-53.2-4.30005-79.8-2.30005-26.4-5.80005-53.1-14.30005-78.3-.9-2.7-1.9-5.4-2.9-8.1.5-5.4.4-10.8.4-16.2,0-6.8.1-14-1.4-20.7-.8-3.7-3.4-6.8-5.4-10-2.80005-4.3-5.5-8.7-8.30005-13-4.69995-7.3-9.4-14.6-14.19995-21.9-8-12.1-16.2-23.9-25.2-35.3-9.1-11.5-18.9-22.3-29-32.9-6.5-6.8-13.19995-13.4-19.9-20-6.9-6.8-13.69995-13.7-20.8-20.1-7.3-6.6-15.3-12.6-23.1-18.7-11.7-9.2-23.6-18.3-35.4-27.3-9-6.8-18-13.7-27.3-20.2-5.9-4.1-12.2-7.7-18.30005-11.6-9.1-5.7-18.19995-11.5-27.19995-17.4-17.1-11-34.2-22-51.7-32.4-5-3-10.1-5.9-15-8.8-7.5-7.7-14.6-15.6-21.4-23.8q-2.70008-3.3-5.4-6.6c-.80005-1-1.6-2.1-2.5-3.1-.5-.6-.9-1.2-1.4-1.7-.19995-.3-.5-.6-.69995-.9l.1.1a2.18115,2.18115,0,0,0-.4-.5c-3.6-4.6-7-9.3-10.4-14.1a419.94759,419.94759,0,0,1-35.5-59.4c-1.4-2.9-2.69995-5.7-4.1-8.6-.69995-1.4-1.30005-2.9-1.9-4.3-.30005-.7-.6-1.3-.9-2-.1-.3-.3-.7-.4-1a1.42149,1.42149,0,0,1-.19995-.6c-2.30005-5.6-4.5-11.1-6.5-16.8a5.67067,5.67067,0,0,0-1.30005-2.7,130.1942,130.1942,0,0,0-35.69995-26.8c-12.6-6.6-26.1-11.6-39.6-15.9-7.1-2.3-14.19995-4.4-21.4-6.6a5.166,5.166,0,0,0-5.4,1.9h0c-3,3.2-1.8,8.2.2,11.6,2.69995,4.3,6.5,8,10.19995,11.4a203.52009,203.52009,0,0,0,22,16.9c-3.69995-1.2-7.3-2.4-11-3.6-8.9-2.8-17.9-5.6-26.9-8a173.53863,173.53863,0,0,0-22.5-4.9,56.2021,56.2021,0,0,0-10-.8,15.64327,15.64327,0,0,0-6.80005,1.4h0a3.92105,3.92105,0,0,0-2.80005,2.2,33.85435,33.85435,0,0,0-2.69995,16.3,44.9344,44.9344,0,0,0,4.80005,16,44.25093,44.25093,0,0,0,21.30005,20.1,117.574,117.574,0,0,0,16.1,5.5.36755.36755,0,0,1,.30005.1c2.19995.8,4.5,1.6,6.6,2.4a3.93129,3.93129,0,0,1,.6.2h0c.1.1.30005.1.4.2.5.2,1,.5,1.6.7,1.2.5,2.30005,1.1,3.4,1.6,4.3,2.1,8.5,4.4,12.6,6.8,3.6,2.1,7.2,4.4,10.80005,6.7-11.7-2.6-23.4-5.4-35.2-7.5a20.29873,20.29873,0,0,0-8.5-.1,8.75849,8.75849,0,0,0-6.69995,6.4,6.0024,6.0024,0,0,0,.80005,4.3,38.284,38.284,0,0,0,10.19995,13.4,74.83771,74.83771,0,0,0,15.6,9.9c5.69995,2.8,11.6,5.1,17.5,7.5,1.30005.5,2.69995,1.1,4,1.6.69995.3,1.30005.5,2,.8a3.55321,3.55321,0,0,1,.9.4.36732.36732,0,0,0,.30005.1h.3999a38.01559,38.01559,0,0,1,8.80005,4.9c.80005.5,1.6,1.1,2.4,1.7.3.2.5.4.69995.5l.19995.1c.30005.2.5.4.80005.6,1.5,1.2,2.9,2.4,4.30005,3.7q3.9,3.6,7.5,7.5a2.53893,2.53893,0,0,0,.8,1c1.8,1.8,3.5,3.6,5.1,5.5.4.5.9,1.1,1.30005,1.6.19995.2,1.1,1.5.5.6.8,1.1,1.6,2.1,2.3,3.2a113.41563,113.41563,0,0,1,7.80005,12.9c4.69995,8.8,8.5,18.1,12.6,27.2,3.80005,8.5,8.1,16.7,14,23.9a44.2393,44.2393,0,0,0,24.30005,15.5c6.6,1.5,13.30005,1.7,20,1.7q18.6,26.7,37.69995,53,19.95007,27.45,40.6,54.2c13.6,17.6,27.6,34.8,42,51.8q21.75,25.5,44.80005,49.8c15.69995,16.4,31.9,32.3,48.69995,47.5,2,1.8,4,3.6,6.2,5.6a89.72157,89.72157,0,0,1,6.4,11.8c.1.2.7,1.5.30005.8l.6,1.5c.4,1.1.80005,2.1,1.2,3.2.69995,2,1.19995,4,1.69995,6,.5,2.1.9,4.1,1.30005,6.2a7.72135,7.72135,0,0,1,.19995,1.5c-.1-.9,0,0,0,.4q.15,1.65.30005,3.3c.3,4.3.4,8.6.3,12.8-.3,9.9-1.3,19.8-2.3,29.6-1.2,11.1-2.5,21-4.2,32-3.3,21.5-6.69995,42.9-9.1,64.5-2.30005,21.1-3.80005,42.3-4.30005,63.6a522.48514,522.48514,0,0,0,2,63.8c.2,2.5.5,4.9.80005,7.4a.36739.36739,0,0,0,.1.3,29.90759,29.90759,0,0,0-4.6,8.2c-2.5,6.9-2.5,14.6-2.80005,21.8-.3,7.6-.6,15.30005-.69995,22.9-.30005,15.4-.4,30.9,0,46.30005.1,7.1.5,14.30005.4,21.4,0,3.5-.1,6.9-.4,10.30005q-.15,1.35-.30005,2.69995c0,.30005-.1.6-.1.9h0a.75632.75632,0,0,1-.1.4c-.30005,1.8-.6,3.5-.9,5.19995-.4,1.6-.8,3.19995-1.19995,4.69995-.30005.80005-.5,1.69995-.80005,2.5a3.5832,3.5832,0,0,0-.4,1.1,21.621,21.621,0,0,1-4.4,1,.36767.36767,0,0,0,.3-.1,38.87319,38.87319,0,0,1-4.9.4c-2.1-9.80005-4.19995-19.5-6.1-29.30005q-2.85-13.95006-5.1-27.9c-.80005-4.8-1.5-9.5-2.19995-14.3-.19995-1.1-.30005-2.2-.5-3.30005v.19995c0-.19995-.1-.8-.1-1q-.15-1.04992-.30005-2.1-.45008-3.6-.9-7.19995c-.30005-2.4-.5-4.80005-.80005-7.19995a5.94882,5.94882,0,0,0-1.19995-3.1l.19995-.19995a23.50649,23.50649,0,0,0,2.7-6.30005c.7-2.19995,1.3-4.4,1.9-6.6,1.3-4.4,2.4-8.8,3.4-13.19995,1.9-8.9,3.1-18.1,2-27.2a50.923,50.923,0,0,0-3.6-14.3,12.63831,12.63831,0,0,0-4.8-5.9,4.05192,4.05192,0,0,0-.9-.5c4-6.6,3.8-15.3.2-22.1a22.53037,22.53037,0,0,0-3.4-4.7,18.10914,18.10914,0,0,0-2.1-1.8c-.4-.3-.9-.7-1.30005-1-.1-.1-.19995-.1-.30005-.2h0v-.5a26.20662,26.20662,0,0,0-.1-2.8,22.76842,22.76842,0,0,0-1.9-6.9,20.7706,20.7706,0,0,0-8.4-9.2,17.81706,17.81706,0,0,0-5.80005-2.2c-1.19995-.2-2.4-.4-3.5-.5h0a2.35349,2.35349,0,0,1-.8-.2h0l-.1-.1v-.1l.1.1c0-.1-.1-.1-.1-.2-.1-.3-.1-.8-.19995-1,0-.2-.1-.3-.1-.5a26.60558,26.60558,0,0,0-.9-6.3,19.13236,19.13236,0,0,0-8.6-10.4c-4.30005-2.5-9.4-3.4-14.30005-3.6-2.1-.1-4.3,0-6.4.1h-2.69995a5.704,5.704,0,0,1-1.30005-.1,2.20253,2.20253,0,0,1-.80005-.1c-.19995,0-1-.2-.69995,0-.30005-.1-.6-.1-.6-.2a5.731,5.731,0,0,1-1.4-.4.60126.60126,0,0,0-.4-.1c-.4-.2-.80005-.5-1.2-.7h0q-.15-.15-.3-.3c-.1-.1-.6-.7-.7-.8h0c-.5-.7-1-1.5-1.4-2.2a32.17712,32.17712,0,0,0-8.19995-9.4,30.29381,30.29381,0,0,0-21.1-6,34.05865,34.05865,0,0,0-12.1,3.7c-.4.2-.9.4-1.3.6h0s-.7.3-.9.4a8.33346,8.33346,0,0,1-1.5.4h-.9a2.91878,2.91878,0,0,1-.9-.2,12.42958,12.42958,0,0,1-1.6-.4c-1-.3-2-.5-3-.8-8-2.2-16.30005-4.2-24.6-3.9a35.65164,35.65164,0,0,0-12.9,2.9,31.65224,31.65224,0,0,0-9.6,7c-1.3,1.3-2.5,2.6-3.8,3.8-.4.4-1,.7-1.5,1.2l-.2.2h0c-.19995.1-.4.3-.6.4-.4.2-.80005.5-1.2.7l-.6.3h-.19995a.90166.90166,0,0,1-.5.1,4.17838,4.17838,0,0,1-.6.2h-.5c-.30005,0-.6.1-.80005.1a22.74282,22.74282,0,0,1-2.6-.2,1.702,1.702,0,0,1-.69995-.1c.1,0,1.1.2.19995,0-.5-.1-1-.1-1.5-.2-4.80005-.7-9.4-.9-13.5,2.3a12.08878,12.08878,0,0,0-3.80005,5.9,20.48493,20.48493,0,0,0-.5,2.4c-.1.4-.1.8-.19995,1.2a8.75462,8.75462,0,0,0-.19995,1.6h0a20.4902,20.4902,0,0,1-.5,2.4c-.1.2-.19995.3-.19995.5h0c-.1.2-.30005.6-.4.8h0l-.1.1a4.6207,4.6207,0,0,0-.7.7c-.4.2-.69995.5-1.1.7-2.6,1.5-5.4,2.3-7.9,3.9a13.86834,13.86834,0,0,0-7,10.5c-.1,1-.1,1.9-.19995,2.9v2.6a2.07335,2.07335,0,0,1-.19995.6c0-.1-.2.3-.4.6,0-.1.1-.1.1,0l-.19995.2a.30984.30984,0,0,1,.1-.2c-.1.1-.1.2-.19995.3l.1-.1a.30971.30971,0,0,0-.1.2v-.1a.3097.3097,0,0,0-.1.2q-.15.15-.3.3h-.1l-.1.1h0c-.4.3-1.69995.9-1.8,1-.80005.4-1.7.8-2.5,1.2a24.64852,24.64852,0,0,0-4.5,2.5,25.768,25.768,0,0,0-7.7,8.7c-3.6,6.8-4.5,14.7-4.6,22.3-.19995,9.5.30005,19.1.9,28.6.6,9.9,1.6,19.69995,2.80005,29.5.69995,5.1,1.30005,10.19995,2.19995,15.30005.69995,4.6,2.1,9.1,5.30005,12.5,3,3.19995,7.19995,4.69995,11,6.69995,1.69995.9,3.4,1.9,5.1,2.9a21.96053,21.96053,0,0,1,2.5,1.69995,8.35076,8.35076,0,0,0,1.19995.80005,1.754,1.754,0,0,1,.5.4c-.8-.6-.1,0,.1.1a39.814,39.814,0,0,1,4.30005,3.9,12.16768,12.16768,0,0,1,1.5,1.69995c0,.1.1.19995.19995.30005.1.19995.30005.4.4.6a1.38154,1.38154,0,0,1,.30005.4h0c.30005.69995.6,1.4.9,2,0,.1.1.19995.1.3v.1a.75824.75824,0,0,0,.19995.4c.30005.7.5,1.4.80005,2.1,1.69995,4.6,3.1,9.3,4.5,14,2.80005,9.6,5.9,19.4,11.9,27.5a61.493,61.493,0,0,0,12,11.9c4.30005,3.2,8.5,6.7,13.4,8.80005a5.22888,5.22888,0,0,0,.6,1.6c3.1,6,5.9,12.1,8.6,18.4,0,.1.30005.69995.30005.80005a2.18184,2.18184,0,0,0,.30005.5q.45006,1.04993.9,2.1c.7,1.69995,1.4,3.4,2,5.1,1.2,3,2.30005,6.1,3.4,9.19995,1.2,3.2,2.30005,6.4,3.30005,9.7-7.5,1.8-13.69995,7.3-19.19995,12.19995-5.4,4.69995-10.69995,9.4-16.1,14.1-2.30005,2-4.7,4.1-7,6.1a224.35846,224.35846,0,0,0-23.1-12.6,220.35643,220.35643,0,0,0-67.2-19.80005,179.83011,179.83011,0,0,0-54.8,1.5c-11.7-6.5-23.80005-12.4-36.1-17.80005-14-6.19995-28.19995-11.9-42.6-17-14.69995-5.3-29.6-10-44.7-14.19995-15.1-4.30005-30.4-8-45.8-11.19995-15.3-3.19995-30.7-5.69995-46.1-7.69995q-1.05-.15-2.1-.30005a584.729,584.729,0,0,0-40.7-79.1c-8-12.9-16.7-25.1-25.7-37.30005-8.7-11.69995-17.5-23.4-26.5-34.9-16.4-21-33.6-41.5-51.5-61.3-15.8-17.5-32-34.7-49-51-3.2-3.1-6.4-6.1-9.8-8.9a33.3006,33.3006,0,0,0-9.5-5.4c-5.3-12.2-12.1-23.8-23.2-31.5a45.49026,45.49026,0,0,0-7.8-4.3,24.41249,24.41249,0,0,0-2.4-1c-.5-.2-1.1-.4-1.6-.6a5.05392,5.05392,0,0,0-6.2,3.4h0v.1a4.583,4.583,0,0,0-.1,2v.1a3.59366,3.59366,0,0,0,.7,1.8,6.47453,6.47453,0,0,0,.8.9c.6.5-19.1,16.1-21.8,15.5-2.6-.5-5.5.7-6.2,3.5-.6,2.5.7,5.6,3.5,6.2.2,0,.5.1.7.1-4.5,3.4-9.1,6.6-13.9,9.6-2.3,1.5-5.4.4-6.8-1.8a3.50617,3.50617,0,0,1-.6-1.4,4.208,4.208,0,0,1-1.6-2.5c-.8-4.5-1.9-8.9-3.1-13.3-1.1-3.8-2.3-7.6-3.7-11.3-.7-1.9-1.4-3.8-2.2-5.6a1.00766,1.00766,0,0,1-.1-.3c.1.2-.2-.3-.2-.3-.2-.5-.4-.9-.6-1.4-.4-.9-.8-1.7-1.2-2.6a160.14516,160.14516,0,0,0-8.5-15.8c-3.7,3.8-7.5,7.8-11.9,10.9a7.34109,7.34109,0,0,1-7.8.8c-3.6-1.7-6.4-5.2-9.2-7.9-.5-.4-.9-.8-1.4-1.2a1.79358,1.79358,0,0,1-.7-.5,21.42822,21.42822,0,0,1-1.9-1.3c-2.6-1.8-5.3-3.8-7.9-5.7-5.6-4.1-11-8.3-16.4-12.6-10.1-8.1-20-16.5-29.4-25.3-4.2,1.1-8.4,2.2-12.6,3.5-3.9,1.1-7.9,2.3-11.8,3.6a4.85941,4.85941,0,0,0-4.5-3,5.01451,5.01451,0,0,0-5,5v1.3c.4,14.9,1.9,29.9,7.9,43.7a56.10419,56.10419,0,0,0,13.3,18.7c6.4,5.9,14,10.3,21.4,14.8q22.8,13.95,46.5,26.4c15.7,8.3,31.7,16.1,47.8,23.4,7.1,3.2,14.3,6.3,21.2,9.9a100.80116,100.80116,0,0,1,10,5.9l2.1,1.5c.4.3.8.6,1.1.8a1.381,1.381,0,0,1,.4.3h0l.1.1h0l.1.1a63.83432,63.83432,0,0,1,8.1,7.8c0,.1.1.1.2.2.9,2,1.7,4,2.6,6,.2.5.4,1,.7,1.6.1.3.3.6.4.9v.1a.34928.34928,0,0,0,.1.2q.75,1.8,1.5,3.6c2.1,5.1,4.2,10.2,6.2,15.3,4.3,10.8,8.4,21.7,12.5,32.6,8.8,23.4,17.3,46.9,26.4,70.2,9.4,24.1,19.2,48.1,30.2,71.5,10.4,22.1,21.9,43.7,35.5,63.9a339.96992,339.96992,0,0,0,21.8,28.80005c9.8,11.69995,19.7,23.19995,30.8,33.69995,2.4,2.30005,4.8,4.5,7.3,6.69995a6.18718,6.18718,0,0,0,2.7,2c3.9,1.5,7.7,3.1,11.6,4.7q2.85,1.20007,5.7,2.4a.34929.34929,0,0,1,.2.1c-.1,0-.2-.1-.3-.2a.30984.30984,0,0,1,.2.1,4.88967,4.88967,0,0,0,.7.3c.4.2.9.4,1.3.6,1,.4,2,.9,3,1.30005q11.4,4.95007,22.8,10.19995,22.5,10.5,44.3,22.5c13.5,7.4,26.7,15.30005,40,22.9a426.11419,426.11419,0,0,0,38.7,19.7,274.21017,274.21017,0,0,0,44.4,15.4c1.9.5,3.9.9,5.8,1.4a5.36352,5.36352,0,0,0,4.4-.9,4.27056,4.27056,0,0,0,2.80005,2.1c20.8,3.3,41.6,6,62.4,9.4,16.8,2.7,33.5,6.1,49.69995,11.5,16.9,5.7,32.19995,14.2,47.19995,23.80005a616.36089,616.36089,0,0,1,53,38c16.5,13.30005,32.19995,27.5,48.1,41.6q21.75,19.35,44.4,37.7c31.9,26,65.19995,50.6,100.69995,71.5,31.2,18.4,65.2,35.19995,101.2,41,3.3.6,6.5,1,9.8,1.3,11.30005,10.2,23.6,19.2,35.30005,28.9,13.6,11.19995,27.4,22,41.9,32a262.43163,262.43163,0,0,0,24.1,15.1h.1c.1.1.19995.1.30005.2a38.52609,38.52609,0,0,0,7.6,2.9c3.69995,1.1,7.5,2,11.30005,2.80005,10.80005,2.30005,21.69995,4.1,32.6,5.6,15.80005,14.80005,34.1,27,52.6,38a583.28692,583.28692,0,0,0,66.4,33.80005c20.69995,9,41.9,17.1,63.69995,23.1a152.79279,152.79279,0,0,0,17.80005,4c7.69995,1.19995,15.5,1.80005,23.30005,2.5a371.17278,371.17278,0,0,0,38,1.30005c26.3-.6,52.3999-3.19995,78.5-6.30005,2.19995-.30005,4.5-.6,6.8-.80005h0c5,3.7,10,7.2,15.1001,10.7,13.2,9.4,26.5,18.6,40.6001,26.6a344.00458,344.00458,0,0,0,57.60009,25.4c30,10.3,60.89991,17.69995,91.89991,24.1,4.69995,1,9.3,1.9,14.10009,2.80005a46.84143,46.84143,0,0,0,14.39991,7.8,42.98622,42.98622,0,0,0,14.19995,1.80005c9.10009-.5,17.7-3.6,25.80005-7.6a133.16615,133.16615,0,0,0,23.8-14.80005,169.00215,169.00215,0,0,0,19.6001-18.19995c4.30005-4.6,8.5-9.4,12.6001-14.19995a3.916,3.916,0,0,0,1-.80005c.8-.9,1.5-1.9,2.3-2.80005,1.80005-2.1,3.6001-4.1,5.3999-6.19995h0c16.1001-11.19995,32.19995-22.30005,48-34,16.3-12,32.3-24.5,47.5-37.80005,6.8-6,13.69995-12,19.8999-18.6a162.14269,162.14269,0,0,0,13.5-16.30005c3.6001-4.9,7-9.9,10.6001-14.9,1.6001-2.4,3.3999-4.69995,5.1001-7v-.1c.1001-.1.1001-.1.2-.19995a.098.098,0,0,1,.1001-.1c.19995-.30005.3999-.5.60009-.80005.5-.6,1-1.30005,1.5-1.9.39991-.5.89991-1,1.3-1.6a180.65345,180.65345,0,0,0,51.30005,4.9,190.29919,190.29919,0,0,0,46.1001-8.5c8.6001-2.6,17.1001-5.69995,25.3999-8.9.1001-.1.3-.1.3999-.19995a7.41706,7.41706,0,0,1,2.5-.5h.59986c.5,0,1-.1,1.6001-.1a30.29356,30.29356,0,0,1,3.10009.19995,1.57777,1.57777,0,0,0,.39991.1h.2c.5.1.8999.19995,1.3999.30005a13.9617,13.9617,0,0,1,2.8999.9,7.59428,7.59428,0,0,0,1.1001.4h0a6.89169,6.89169,0,0,0,1,.4,35.80391,35.80391,0,0,1,5.8999,3.6,3.3778,3.3778,0,0,0,1.2.6c11.5,7,27.3-1,33.1001-12.6a3.1753,3.1753,0,0,0,.3-.9h0c.1001-.30005.3-.5.3999-.80005C2719.91477,1730.159,2711.21458,1720.559,2702.91477,1714.859Zm-196.60009-388.5h0a.77391.77391,0,0,1,.3-.1c-.10009.1-.3.1-.3999.19995A.09775.09775,0,0,0,2506.31468,1326.359Zm-1-25.69995Zm-1043.1-777.8Zm-251.5,572.8a.09792.09792,0,0,1,.1.1Zm-532.6-192.1c0,.1.1.1,0,0h0l.1.1C678.2147,903.659,678.2147,903.659,678.11466,903.559Zm114.5,126.6Zm262.9,194.1Zm371.30005-216c0-.2,0-.5.1-.5l-.1.5Zm-20.80005-42.5h0c.1.1.2.1.2.2.00012-.1-.09986-.1-.2-.2h0c.10009.2,0,.3,0,0Zm-120.39991-32.3h0C1285.51463,933.559,1285.2147,933.559,1285.61472,933.459Zm-5.5,1.6-.1.1c-.1,0-.1.1-.1,0C1279.81468,935.059,1279.91465,935.059,1280.11472,935.059Zm-22.70007,4.7c-.29993.1-.5.1,0,0Zm-12.79993,9.6h0Zm179.39991,137.3-.1.1.1-.1c0,.1.10009,0,0,0Zm4.80005-60.3c.1,0,.1,0,.1.1A.09791.09791,0,0,0,1428.81468,1026.359Zm1.19995,1.4c0,.1.1.2.2.3C1430.11472,1027.959,1430.01463,1027.859,1430.01463,1027.759Zm.30005.80005h0c0-.1-.1-.1-.1-.2h0c.1,0,.1.1.1.2a.09791.09791,0,0,0,.1.1Zm23,158.4a2.76944,2.76944,0,0,1,.9-.1A2.76944,2.76944,0,0,1,1453.31468,1186.95906Zm605.5,387.5Zm83.2,330h0C2142.11472,1904.559,2142.01463,1904.559,2142.01463,1904.45906Zm2.69995-388Zm239.6001,194.8999h0l.10009-.1Zm122.3,75,.1001-.19995c.1001-.1.1001-.1.19995-.2A1.38422,1.38422,0,0,1,2506.61472,1786.359Zm.59986-139.5a.098.098,0,0,1,.1001-.1c.10009-.1.10009-.1.10009-.19995C2507.41477,1646.659,2507.31468,1646.759,2507.21458,1646.859Zm67.70019-5.3999c-.10009-.1-.19995-.19995-.3-.19995.2.09985.39991.19995.3.19995C2575.01463,1641.559,2574.91477,1641.559,2574.91477,1641.45906Zm118.29981,106.6c-.19995.1-.29981.1,0,0Zm13.80005-11.5h0c-.1001.5-.1001.5-.1001.3a.36736.36736,0,0,0,.1001-.3h0c0-.2.10009-.30005.10009-.4C2707.11472,1736.259,2707.01463,1736.45906,2707.01463,1736.559Z"/>
      <path class="cls-2" d="M1256.11472,940.059c-.4-.1-.5,0-.4,0Z"/>
      <path class="cls-2" d="M1259.81468,938.359l.19995-.2Z"/>
    </g>
    <path class="cls-3" d="M755.51469,535.759a2.64916,2.64916,0,0,0-.5-.6c0-.1-.1-.1-.1-.2-.1-.1-.2-.1-.2-.2-.1-.1-.2-.1-.3-.2l-.1-.1a4.67185,4.67185,0,0,0-5.5-.4c-12.2,8.1-24.5,16.1-36.7,24q-20.4,13.2-40.8,26.6-9.6,6.3-19.2,12.6c-.1.1-.3.2-.4.3-5.4.1-10.9.2-16.3.2q-7.35.15-14.7.3c5.3-13.4,10.6-26.7,15.8-40.1,4-10.3,8.2-20.6,12.2-31h0a5.35763,5.35763,0,0,0,.5-1.1h0a4.42422,4.42422,0,0,0-.4-3.7h0c-.1-.1-.2-.3-.3-.4s-.2-.3-.3-.4a5.3417,5.3417,0,0,0-2.5-1.8,4.931,4.931,0,0,0-4.3.9c-20,10.9-40.2,21.9-60.2,32.9-6.8,3.7-13.5,7.4-20.3,11.2,1.5-8.3,2.7-16.7,4.1-25a.90172.90172,0,0,1,.1-.5h0v-.7a1.7023,1.7023,0,0,0-.1-.7c0-.2,0-.3-.1-.4,0-.2-.1-.3-.1-.4a4.41028,4.41028,0,0,0-3.3-3.4,4.32865,4.32865,0,0,0-1.6-.1h0c-19.5-1.3-39-3.1-58.4-4.6-4.3-.3-8.5-.6-12.7-.9-.1-.1-.2-.3-.3-.4-.7-30.4-.9-60.6-.7-91,.1-8.8.2-17.6.3-26.5a6.74987,6.74987,0,0,0-.2-1.4h0a4.36752,4.36752,0,0,0-.7-2.1c-.3-.3-.5-.6-.8-.9l-.1-.1a7.00581,7.00581,0,0,0-1-.8,4.42417,4.42417,0,0,0-1.5-.5h0a4.33762,4.33762,0,0,0-3.5.5c-12.5,8.2-25.5,15.8-38.5,23.2-14.2,8.2-28.6,16.2-42.8,24.4-7,4-14.1,8.1-21,12.3-.2.1-.3.2-.5.3-11.6-2.5-23.1-4.9-34.7-7.3-16.5-3.5-33.1-7-49.7-10.4-16.7-3.5-33.4-6.9-50.2-10.4q-25.2-5.1-50.4-10.1c-2.1-.4-4.1-.8-6.2-1.2a4.99955,4.99955,0,0,0-5.2,1.1l-.3.3h0a3.86136,3.86136,0,0,0-1,1.9,5.32139,5.32139,0,0,0,2.4,5.8c16.1,15.9,32,32.1,47.8,48.4,16.5,17,33,34.1,49.5,51.1,3.3,3.4,6.7,6.8,10,10.3-8-3.4-16.1-6.8-24.3-10.1-2.4-1-5.6,1.1-6.2,3.5a4.528,4.528,0,0,0,.3,3.3c0,.1.1.2.1.3.1.1.1.2.2.3a.09794.09794,0,0,0,.1.1q17.7,27,36.4,53.5c3.8,5.3,7.5,10.6,11.3,15.8-2.2,2.7-4.3,5.3-6.5,7.9-3,3.7-5.9,7.5-8.9,11.3-6.2,7.8-12.4,15.5-18.8,23.1-3.6,4.3-7.3,8.6-11,12.9a5.854,5.854,0,0,0-1,1.7.34929.34929,0,0,1-.1.2c0,.1-.1.2-.1.4a.90145.90145,0,0,0-.1.5v.3a4.57461,4.57461,0,0,0,1.4,4.1,7.193,7.193,0,0,0,2.1,1.2.09794.09794,0,0,1,.1.1c.4.1.9.2,1.4.3q44.7,4.2,89.4,7.2c7.6.4,15.1,1,22.7,1.4,7.1,8.1,13.7,16.7,20.8,24.9,1.7,29,2.7,58.1,4.2,87.2.4,8.2.8,16.5,1.3,24.7a5.019,5.019,0,0,0,.2,1.2c0,.1,0,.2.1.2,0,.1.1.2.1.3a4.8731,4.8731,0,0,1,.3.7c.1.1.2.3.3.4l.3.3.3.3a1.38074,1.38074,0,0,0,.4.3c.1.1.2.1.3.2a5.22713,5.22713,0,0,0,5.3.3c4.8-2.4,9.7-4.7,14.6-6.8,1.1-.5,2.3-1,3.4-1.5.4-.2.7-.3,1.1-.5.1-.1.9-.4.1,0,.6-.3,1.3-.5,1.9-.8,2.5-1,5.1-2.1,7.6-3,2.9-1.1,5.9-2.2,8.8-3.3,3.2-1.1,6.3-2.2,9.5-3.3,3.9-1.3,7.8-2.5,11.8-3.6,4.2-1.2,8.4-2.4,12.6-3.5,9.5,8.8,19.3,17.2,29.4,25.3,5.4,4.3,10.8,8.5,16.4,12.6,2.6,1.9,5.3,3.9,7.9,5.7a21.39931,21.39931,0,0,0,1.9,1.3c.3.2.5.4.7.5a14.92659,14.92659,0,0,0,1.4,1.2c2.8,2.7,5.6,6.2,9.2,7.9a7.34105,7.34105,0,0,0,7.8-.8c4.4-3.1,8.2-7.1,11.9-10.9a133.27511,133.27511,0,0,1,8.5,15.8c.4.9.8,1.7,1.2,2.6.2.5.4.9.6,1.4a.75818.75818,0,0,0,.2.4v-.1a.36738.36738,0,0,1,.1.3c.8,1.8,1.5,3.7,2.2,5.6,1.4,3.7,2.6,7.5,3.7,11.3,1.2,4.4,2.3,8.8,3.1,13.3a13.67741,13.67741,0,0,1,2.19995,3.9c1.4,2.2,4.5,3.3,6.8,1.8,4.8-3,9.4-6.2,13.9-9.6,3.4-2.6,29.3-22.8,28.8-23-.2,0,3.3-3,3.6-5.8q.15-1.65.3-3.3c1.4-15.7,2.1-31.5,2.6-47.2.1-3.9.2-7.8.2-11.7,2.9-.4,5.7-.9,8.6-1.3,10-1.6,20-3.6,29.9-5.8,3.2-.7,6.4-1.5,9.6-2.3,3.7-.9,4.8-5.8,2.2-8.4q-21-20.7-42-41.3c-1.2-1.2-2.3-2.3-3.5-3.4,15.3-10,30.4-20.3,45.4-30.7,4.8-3.3,9.6-6.7,14.4-10.1.1-.1.2-.1.3-.2h0a5.06935,5.06935,0,0,0,2-2.8.90172.90172,0,0,1,.1-.5h0a4.39606,4.39606,0,0,0-.6-3.3,6.03388,6.03388,0,0,0-2.3-1.9h-.1a6.89145,6.89145,0,0,0-.8-.3c-7.5-2.8-15-5.6-22.6-8.2,9.1-17.1,18-34.3,26.9-51.4,9.2-17.6,18.5-35.2,26.7-53.3,4.6-10.1,9-20.3,13.8-30.3a4.18,4.18,0,0,0,.4-1A7.63577,7.63577,0,0,0,755.51469,535.759Zm-269.8,200.8v-.2a3.55377,3.55377,0,0,1,.2,1C485.81468,737.159,485.81468,736.859,485.7147,736.559Zm115.7,70.7h.2l.1-.1a.09791.09791,0,0,0,.1-.1c.3-.2.5-.1.4,0-.2.1-.4.1-.5.2l-.3-.00006h0c-.1.1-.2.1-.2.2a.09791.09791,0,0,1,.1-.1,1.08759,1.08759,0,0,0-.5.1C601.01469,807.359,601.2147,807.359,601.41465,807.259Z"/>
    <path class="cls-2" d="M2586.15109,1747.3055c-.19995,0-.3-.1-.5-.1A1.339,1.339,0,0,0,2586.15109,1747.3055Z"/>
    <path class="cls-2" d="M2537.01682,1761.7273a180.65345,180.65345,0,0,0,51.30005,4.9,190.2987,190.2987,0,0,0,46.1001-8.5c8.6001-2.6,17.1001-5.69995,25.3999-8.9.1001-.1.3-.1.3999-.19995a7.41706,7.41706,0,0,1,2.5-.5h.59986c.5,0,1-.1,1.6001-.1a30.29356,30.29356,0,0,1,3.10009.19995,1.57777,1.57777,0,0,0,.39991.1h.2c.5.1.8999.19995,1.3999.30005a13.9617,13.9617,0,0,1,2.8999.9,7.59428,7.59428,0,0,0,1.1001.4h0a6.89169,6.89169,0,0,0,1,.4,35.80391,35.80391,0,0,1,5.8999,3.6,3.3778,3.3778,0,0,0,1.2.6c11.5,7,27.3-1,33.1001-12.6a3.1753,3.1753,0,0,0,.3-.9h0c.1001-.30005.3-.5.3999-.80005,3.99829-10.59973-4.7019-20.1997-13.00171-25.89978a74.79866,74.79866,0,0,0-17.3-8.4,106.19129,106.19129,0,0,0-20-4.9,91.03171,91.03171,0,0,0-23.8999-.5,57.17171,57.17171,0,0,1-5.80005-2.1c-.19995-.1-.5-.19995-.69995-.30005-.5-.19995-.8999-.4-1.3999-.6-1.1001-.5-2.3-1.1-3.3999-1.69995a54.25178,54.25178,0,0,1-5.69995-3.5c-.89991-.6-1.80005-1.2-2.7-1.9q-.59985-.45007-1.19995-.9a1.44087,1.44087,0,0,1-.30005-.19995l-.10009-.1a.098.098,0,0,0,.10009.1.098.098,0,0,1-.10009-.1.30986.30986,0,0,0-.19995-.1c-.1001-.1-.30005-.19995-.30005-.3a90.56083,90.56083,0,0,1-9.1001-8.4c-1.3-1.4-2.5-2.80005-3.69995-4.19995-.1001-.2-.5-.7-.6001-.9,0,.1.1001.19995.3.5-.19995-.30005-.5-.6-.69995-.9q-.75-1.04993-1.5-2.1c-.8999-1.4-1.80005-2.80005-2.6001-4.30005-.3-.6-.7-1.3-1-1.9-.1001-.19995-.1001-.4-.2-.6-.1001-.1-.1001-.19995-.19995-.3-.1001-.2-.2-.5-.30005-.7h0c-1.3-3.8-2.5-7.6-4-11.4a45.8326,45.8326,0,0,0-7.1001-12.30005c-6.2-7.69995-14.80005-14.19995-24.6001-16.5"/>
    <path class="cls-2" d="M2492.85128,1639.70552c-.10009-.1-.19995-.19995-.3-.19995.2.09985.39991.19995.3.19995C2492.95114,1639.8055,2492.85128,1639.8055,2492.85128,1639.70552Z"/>
    <path class="cls-2" d="M2611.15109,1746.3055c-.19995.1-.29981.1,0,0Z"/>
    <path class="cls-2" d="M2624.95114,1734.8055h0c-.1001.5-.1001.5-.1001.3a.36733.36733,0,0,0,.1001-.3h0c0-.2.10009-.3.10009-.4C2625.05123,1734.50545,2624.95114,1734.70552,2624.95114,1734.8055Z"/>
    <g>
      <path class="cls-2" d="M2498.54759,239.90512c-97.94043-106.66577-291.69751-107.166-545.5625-1.40527-144.86744,60.34985-299.92432,151.26489-455.07374,265.61523l-.01013-.00659-1.09631.81934q-8.99012,6.63245-17.98,13.35815l.056.03906L1453.45579,537.329l25.03345,20.21045,17.91394-15.38745-3.67469,5.28222,12.44947-10.48974c.077.06054.15319.12207.23071.18213,156.58472-116.47705,313.15137-208.80738,459.0686-269.5962,118.626-49.41967,223.45435-75.15356,311.57935-76.48706q10.23376-.15453,20.09228.13379c78.86768,2.30713,139.38843,25.88526,180.09644,70.22,44.09717,48.02515,63.03979,118.345,56.30371,208.99927-6.688,90.02466-38.17285,195.64356-93.57666,313.91992-114.8501,245.17066-318.81787,515.78736-574.32971,762.00183-245.29065,236.36121-509.57776,422.72156-747.88318,527.88874a105.23313,105.23313,0,0,0-20.62744-31.53546,101.27524,101.27524,0,0,0-145.64923-1.97693c-27.43836,27.334-36.83136,66.48108-28.01319,101.89251-53.04467,13.19336-102.1737,20.20838-146.9649,20.88605-88.76764,1.33039-156.09546-22.324-200.19263-70.35235s-63.04059-118.34491-56.30444-208.99909c6.69171-90.028,38.17657-195.64368,93.58136-313.91858,44.24206-94.44909,101.75854-192.67749,170.30536-291.82812l-.03693-.02661,3.19165-4.71314-15.38757-32.6123-9.82471,15.1184c-70.8446,102.042-130.25232,203.23047-175.83258,300.53345-118.57233,253.12207-129.93372,451.26764-31.99347,557.93335,46.74787,50.91669,115.31177,77.64307,201.833,80.16992,53.38428,1.56092,113.60754-6.0943,179.749-22.95953A105.26536,105.26536,0,0,0,948.347,2189.891a101.27448,101.27448,0,0,0,145.64856,1.97846,106.92831,106.92831,0,0,0,30.62879-87.00416c242.63147-106.27008,511.7174-295.56085,760.96423-535.73248,258.2-248.79895,464.52417-522.71509,580.96533-771.29138C2585.12644,544.721,2596.49,346.57382,2498.54759,239.90512Z"/>
      <path class="cls-2" d="M1365.83665,607.1019c-67.4314,55.52783-134.33545,115.13574-199.86475,178.27978-111.89013,107.81641-214.02716,220.34937-303.34027,333.49439l-9.061,1.57251,2.756,32.38281,9.87561,11.25354,13.941-17.61.01452.03443c89.88849-114.6731,193.21894-228.90381,306.76093-338.31445,67.99853-65.523,137.46435-127.16089,207.42578-184.34009A99.98257,99.98257,0,0,1,1365.83665,607.1019Z"/>
      <path class="cls-2" d="M1701.84381,1733.03068c-100.71243-17.30924-203.79512-40.20179-307.50952-68.54836-338.31361-92.47532-642.28682-231.50844-855.919-391.4868-103.064-77.18038-179.21-154.84993-226.32548-230.84946-47.44266-76.53544-62.90428-147.6558-45.9518-211.38729C281.05442,774.67162,320.5357,726.44226,383.60745,687.063c-6.24852.8942-4.5-14.77121-10.99391-14.47055-11.23285.52032-28.31523,13.74148-35.123,8.557-52.1232,39.59111-86.39894,87.07894-100.883,141.53658-37.65081,141.55059,63.08343,310.46476,283.64332,475.63542,216.59829,162.19985,524.1639,302.98866,866.03251,396.43763a3269.44665,3269.44665,0,0,0,352.85454,76.13351A253.1953,253.1953,0,0,1,1701.84381,1733.03068Z"/>
      <path class="cls-2" d="M2699.96689,1206.06265c39.15881-37.60485,44.02552-100.17886,9.89-143.31563a101.27265,101.27265,0,0,0-144.88127-15.05814,105.44637,105.44637,0,0,0-17.03194,17.95418q-9.35407-7.244-18.99637-14.48174c-216.59751-162.20141-524.16312-302.99178-866.03173-396.43608-328.87383-89.894-651.99921-125.69795-914.38728-101.73827-11.40344,12.35839-11.07785,13.27908-22.771,24.16375,2.26355-.26327,4.22366,9.1024,6.502,8.84847,143.18789-15.95857,294.82287-11.82084,468.09277,8.93591,146.20544,17.51487,299.68447,47.748,454.51259,90.06689,338.31282,92.4722,642.286,231.50532,855.91819,391.48679,7.56023,5.65966,14.92884,11.324,22.19775,16.98987-12.09045,33.71959-7.12325,72.80751,16.46021,102.61223a101.1616,101.1616,0,0,0,125.02418,28.03033q36.91744,41.83286,62.64334,83.2186c47.44343,76.53231,62.905,147.65268,45.95179,211.38573-16.94937,63.73149-65.58533,117.33231-144.55412,159.31316-4.89709,2.60316-20.83169,10.62877-25.93052,13.12755,9.22245,5.44,26.73437,9.30076,29.96067,19.905,91.59357-46.2322,149.91-108.53671,170.05451-184.27609C2838.48358,1429.45471,2798.9283,1319.17009,2699.96689,1206.06265Z"/>
      <path class="cls-2" d="M1124.62434,2104.86524c242.63146-106.27005,511.71749-295.56085,760.96434-535.73247,258.19979-248.799,464.52408-522.7151,580.96531-771.2913l-27.58167-13.52522c-114.84989,245.17075-318.81793,515.78736-574.32967,762.00186-245.2907,236.36113-509.57778,422.72162-747.8831,527.88871Z"/>
    </g>
  </g>
</svg>
