<svg id="Шар_1" data-name="Шар 1" xmlns="http://www.w3.org/2000/svg" viewBox="0 0 3000 3000">
  <defs>
    <style>
      .cls-1 {
        fill: #ea532e;
      }
    </style>
  </defs>
  <title>прометей оранж</title>
  <g>
    <polygon class="cls-1" points="510.873 2563.794 315.473 2563.794 315.473 2392.194 219.373 2392.194 219.373 2840.694 315.473 2840.694 315.473 2643.294 510.873 2643.294 510.873 2840.694 606.973 2840.694 606.973 2392.194 510.873 2392.194 510.873 2563.794"/>
    <polygon class="cls-1" points="993.273 2563.794 797.873 2563.794 797.873 2392.194 701.773 2392.194 701.773 2840.694 797.873 2840.694 797.873 2643.294 993.273 2643.294 993.273 2840.694 1089.373 2840.694 1089.373 2392.194 993.273 2392.194 993.273 2563.794"/>
    <rect class="cls-1" x="1401.27279" y="2392.19437" width="96.1001" height="448.5"/>
    <path class="cls-1" d="M1722.473,2392.19437l-165,448.5h99.29932l30.5-91.3999h174.2002l30.5,91.3999h102.70019l-166.8999-448.5Zm-8.60009,277.6001,60.30029-183.5,60.8999,183.5Z"/>
    <polygon class="cls-1" points="1971.473 2471.694 2103.973 2471.694 2103.973 2840.694 2200.073 2840.694 2200.073 2471.694 2332.573 2471.694 2332.573 2392.194 1971.473 2392.194 1971.473 2471.694"/>
    <polygon class="cls-1" points="2392.773 2840.694 2717.373 2840.694 2717.373 2761.194 2488.773 2761.194 2488.773 2643.294 2677.573 2643.294 2677.573 2563.794 2488.773 2563.794 2488.773 2471.694 2717.373 2471.694 2717.373 2392.194 2392.773 2392.194 2392.773 2840.694"/>
    <path class="cls-1" d="M2699.773,1205.89456c39.2-37.60009,44-100.20019,9.8999-143.2998a101.35046,101.35046,0,0,0-144.90014-15.1001,99.562,99.562,0,0,0-17,18c-6.2002-4.7998-12.6001-9.70019-19-14.5-44.66437-33.44678-93.20728-65.98047-145.11243-97.37939,31.17-52.749,58.88849-104.86914,82.81262-155.9209l-.1192-.05859.01959-.041c118.59961-253.1001,129.99952-451.2002,31.99952-557.8999-97.89991-106.7002-291.70014-107.2002-545.6-1.3999-144.8999,60.2998-299.8999,151.2998-455.1001,265.60009l-1.1001.79981c-6,4.3999-12,8.8999-18,13.3999h.1001l-3.36066,2.51416c-9.21179-7.16455-18.50268-14.27051-27.73553-21.3125-9-6.7998-18-13.69971-27.2998-20.19971-5.89991-4.10009-12.2002-7.70019-18.29981-11.60009-9.1001-5.7002-18.20019-11.5-27.20019-17.39991-17.1001-11-34.2002-22-51.7002-32.3999-5-3-10-5.8999-15-8.80029-7.5-7.69971-14.6001-15.6001-21.3999-23.79981q-2.69971-3.30028-5.3999-6.60009c-.79981-1-1.6001-2.1001-2.5-3.1001-.5-.6001-.89991-1.2002-1.39991-1.7002-.20019-.2998-.5-.6001-.70019-.8999l.1001.1001a2.18984,2.18984,0,0,0-.39991-.5c-3.60009-4.6001-7-9.29981-10.3999-14.1001a419.94864,419.94864,0,0,1-35.5-59.3999c-1.3999-2.8999-2.70019-5.69971-4.1001-8.6001-.70019-1.3999-1.2998-2.8999-1.8999-4.2998-.2998-.7002-.6001-1.3003-.8999-2-.1001-.3003-.29981-.7002-.3999-1a1.42079,1.42079,0,0,1-.2002-.6001c-2.2998-5.6001-4.5-11.1001-6.3999-16.8003a5.051,5.051,0,0,0-1.3999-2.6997,130.2022,130.2022,0,0,0-35.7002-26.8003c-12.6001-6.60009-26.1001-11.60009-39.6001-15.8999-7.10009-2.2998-14.20019-4.3999-21.3999-6.6001a5.16614,5.16614,0,0,0-5.3999,1.89991c-3,3.20019-1.79981,8.20019.20019,11.60009,2.7002,4.3003,6.5,8,10.2002,11.39991a213.72664,213.72664,0,0,0,22,16.8999c-3.7002-1.19971-7.29981-2.3999-11-3.6001-8.8999-2.7998-17.8999-5.6001-26.8999-8a173.53035,173.53035,0,0,0-22.5-4.8999,56.19259,56.19259,0,0,0-10-.79981,15.64258,15.64258,0,0,0-6.79981,1.39991,3.92,3.92,0,0,0-2.7998,2.1997,33.853,33.853,0,0,0-2.7002,16.3003,44.94591,44.94591,0,0,0,4.79981,16,44.25341,44.25341,0,0,0,21.2998,20.10009,117.6171,117.6171,0,0,0,16.1001,5.5.36624.36624,0,0,1,.2998.1001c2.2002.79981,4.5,1.6001,6.6001,2.3999a3.97335,3.97335,0,0,1,.6001.19971c.1001.1001.2998.1001.3999.2002.5.1997,1,.5,1.6001.6997,1.20019.5,2.2998,1.1001,3.3999,1.6001,4.29981,2.1001,8.5,4.3999,12.6001,6.80029,3.6001,2.1001,7.20019,4.39991,10.7998,6.69971-11.70019-2.6001-23.3999-5.3999-35.20019-7.5a20.30354,20.30354,0,0,0-8.5-.1001,8.75947,8.75947,0,0,0-6.7002,6.39991,6.00583,6.00583,0,0,0,.79981,4.30029,38.28169,38.28169,0,0,0,10.20019,13.3999,74.85282,74.85282,0,0,0,15.6001,9.8999c5.7002,2.79981,11.6001,5.1001,17.5,7.5,1.29981.5,2.7002,1.1001,4,1.6001.7002.29981,1.29981.5,2,.79981a3.56433,3.56433,0,0,1,.8999.3999.36724.36724,0,0,0,.29981.1001h.40039a38.00984,38.00984,0,0,1,8.7998,4.8999c.79981.5,1.6001,1.1001,2.39991,1.70019.2998.19971.5.39991.70019.5l.2002.1001c.2998.19971.5.3999.7998.6001,1.5,1.19971,2.8999,2.3999,4.29981,3.69971q3.90014,3.59985,7.5,7.5a2.54083,2.54083,0,0,0,.7998,1c1.7998,1.80029,3.5,3.60009,5.1001,5.5.3999.5.8999,1.10009,1.2998,1.60009.2002.2002,1.1001,1.5.5.6001.79981,1.1001,1.6001,2.1001,2.29981,3.2002a113.40923,113.40923,0,0,1,7.7998,12.8999c4.7002,8.7998,8.5,18.1001,12.6001,27.19971,3.7998,8.5,8.1001,16.70019,14,23.8999a44.23867,44.23867,0,0,0,24.2998,15.5c6.6001,1.5,13.29981,1.70019,20,1.70019q18.59986,26.69971,37.7002,53,19.9497,27.44971,40.6001,54.19971c2.3695,3.06641,4.767,6.106,7.16082,9.14942-212.825-35.76124-415.01617-46.61915-590.30011-30.89209,1.6803-3.70166,3.37635-7.39551,5.1344-11.05811.1001-.2998.29981-.69971.39991-1,.10156-1.80029.10156-3.30029-.69825-4.6001a2.65958,2.65958,0,0,0-.5-.6001c0-.10009-.10009-.10009-.10009-.1997l-.2002-.2002c-.1001-.09961-.20019-.1001-.2998-.1997l-.1001-.1001a4.67115,4.67115,0,0,0-5.5-.3999c-12.2002,8.10009-24.5,16.10009-36.7002,24q-20.40014,13.1997-40.7998,26.60009-9.59985,6.29956-19.2002,12.6001c-.10009.1001-.2998.19971-.3999.29981-5.3999.10009-10.8999.20019-16.2998.20019q-7.34987.15015-14.7002.29981c5.29981-13.39991,10.6001-26.69971,15.79981-40.1001,4.10009-10.29981,8.20019-20.6001,12.20019-31a2.456,2.456,0,0,0,.3999-1.1001,4.42325,4.42325,0,0,0-.3999-3.69971c-.1001-.10009-.20019-.30029-.2998-.3999-.1001-.1001-.2002-.30029-.29981-.3999a5.14557,5.14557,0,0,0-2.6001-1.80029,4.93078,4.93078,0,0,0-4.2998.8999c-20,10.8999-40.2002,21.8999-60.2002,32.8999-6.7998,3.7002-13.5,7.3999-20.2998,11.2002,1.5-8.3003,2.7002-16.7002,4.1001-25,0-.2002.1001-.3003.1001-.5,0-.2002.10009-.5,0-.7002a1.69886,1.69886,0,0,0-.1001-.69971c0-.20019,0-.30029-.1001-.3999,0-.20019-.1001-.30029-.1001-.3999a4.40964,4.40964,0,0,0-3.2998-3.3999,4.32531,4.32531,0,0,0-1.6001-.1001c-19.5-1.30029-39-3.1001-58.3999-4.6001-4.29981-.30029-8.5-.6001-12.7002-.8999-.1001-.1001-.20019-.30029-.2998-.3999-.7002-30.39991-.8999-60.6001-.7002-91,.1001-8.8003.2002-17.6001.29981-26.5a6.74539,6.74539,0,0,0-.2002-1.39991,4.36424,4.36424,0,0,0-.70019-2.10009c-.29981-.3003-.5-.6001-.79981-.89991l-.1001-.10009a4.80709,4.80709,0,0,0-2.60009-1.3003,4.33954,4.33954,0,0,0-3.5.5c-12.5,8.2002-25.5,15.8003-38.5,23.2002-14.2002,8.19971-28.6001,16.19971-42.79981,24.3999-7,4-14.1001,8.1001-21,12.29981-.20019.10009-.2998.20019-.5.30029-11.6001-2.5-23.1001-4.8999-34.70019-7.30029-16.5-3.5-33.1001-7-49.7002-10.39991-16.70019-3.5-33.3999-6.8999-50.20019-10.3999q-25.19972-5.09985-50.39991-10.1001c-2.10009-.3999-4.10009-.7998-6.20019-1.1997a4.99917,4.99917,0,0,0-5.2002,1.10009q-.15015.15015-.2998.29981a3.86338,3.86338,0,0,0-1,1.8999,5.32172,5.32172,0,0,0,2.3999,5.80029c16.1001,15.89991,32,32.1001,47.7998,48.39991,16.5,17,33,34.10009,49.5,51.10009,3.39991,3.39991,6.7002,6.79981,10.1001,10.29981-8.1001-3.3999-16.1001-6.79981-24.2998-10.1001-2.3999-1-5.6001,1.1001-6.2002,3.5a4.52993,4.52993,0,0,0,.29981,3.30029.36677.36677,0,0,1,.10009.29981c.1001.1001.1001.20019.2002.30029a.098.098,0,0,0,.1001.1001q17.6997,27,36.3999,53.5c3.7998,5.2998,7.5,10.6001,11.2998,15.7998-2.20019,2.7002-4.2998,5.3003-6.5,7.89991-3,3.70019-5.8999,7.5-8.8999,11.30029-6.20019,7.7998-12.3999,15.5-18.7998,23.1001-3.6001,4.2998-7.29981,8.60009-11,12.8999a5.86412,5.86412,0,0,0-1,1.69971.34948.34948,0,0,1-.1001.20019c0,.1001-.1001.19971-.1001.3999a.9.9,0,0,0-.1001.5v.29981a4.57515,4.57515,0,0,0,1.39991,4.1001,7.19836,7.19836,0,0,0,2.10009,1.20019.098.098,0,0,1,.1001.1001c.3999.1001.8999.19971,1.3999.2998q35.47139,3.33326,70.94312,5.89942c-51.95361,39.56006-86.16553,86.99121-100.64136,141.30029-37.70019,141.6001,63.1001,310.5,283.6001,475.6001A1781.64,1781.64,0,0,0,669.194,1397.88773c-31.81384,53.63135-60.05871,106.624-84.32067,158.50683-118.6001,253.1001-129.89991,451.29981-32,557.89991,46.70019,50.8999,115.2998,77.60009,201.7998,80.20019,53.3999,1.6001,113.6001-6.1001,179.7002-23a103.23006,103.23006,0,0,0,13.7998,18.1001,101.302,101.302,0,0,0,145.6001,2,106.83769,106.83769,0,0,0,30.6001-87l.06665-.0293.033.12891c174.06781-76.271,361.778-195.27539,546.02845-345.11279.02386.00537.04779.01074.07165.01562,10.79981,2.29981,21.7002,4.1001,32.6001,5.6001,15.7998,14.7998,34.1001,27,52.6001,38a583.22634,583.22634,0,0,0,66.3999,33.7998c20.7002,9,41.8999,17.1001,63.7002,23.1001a152.752,152.752,0,0,0,17.7998,4c7.7002,1.2002,15.5,1.79981,23.2998,2.5a371.06716,371.06716,0,0,0,38,1.29981c26.29981-.6001,52.39991-3.2002,78.5-6.29981,2.2002-.2998,4.5-.6001,6.79981-.7998,5,3.70019,10,7.20019,15.1001,10.70019,13.20019,9.3999,26.5,18.6001,40.60009,26.6001a344.00451,344.00451,0,0,0,57.6001,25.3999c30,10.29981,60.8999,17.7002,91.89984,24.1001,4.7002,1,9.29981,1.8999,14.1001,2.7998a46.83548,46.83548,0,0,0,14.3999,7.79981,42.98351,42.98351,0,0,0,14.2002,1.7998c9.1001-.5,17.70019-3.60009,25.7998-7.60009a133.17476,133.17476,0,0,0,23.79981-14.79981,169.00417,169.00417,0,0,0,19.6001-18.20019c4.2998-4.6001,8.5-9.39991,12.60009-14.2002a7.03084,7.03084,0,0,0,1-.7998c.79981-.89991,1.5-1.89991,2.29981-2.79981,1.7998-2.1001,3.6001-4.1001,5.3999-6.20019,16.1001-11.2002,32.2002-22.29981,48-34,16.29981-12,32.29981-24.5,47.5-37.79981,6.79981-6,13.7002-12,19.8999-18.6001a162.22707,162.22707,0,0,0,13.5-16.2998c3.6001-4.8999,7-9.8999,10.6001-14.8999,1.6001-2.39991,3.3999-4.7002,5.1001-7v-.1001l.20019-.2002a.098.098,0,0,1,.1001-.10009c.2002-.29981.3999-.5.6001-.79981.5-.6001,1-1.2998,1.5-1.8999.3999-.5.8999-1,1.2998-1.6001a180.65858,180.65858,0,0,0,51.3,4.8999,190.2814,190.2814,0,0,0,46.1001-8.5c8.6001-2.60009,17.1001-5.70019,25.3999-8.8999.1001-.1001.3-.1001.3999-.20019a7.42292,7.42292,0,0,1,2.5-.5h.59986c.5,0,1-.1001,1.6001-.1001a30.25774,30.25774,0,0,1,3.10009.20019,1.57617,1.57617,0,0,0,.39991.1001h.2c.5.1001.8999.2002,1.3999.29981a13.98311,13.98311,0,0,1,2.8999.8999,7.57774,7.57774,0,0,0,1.1001.3999,6.87459,6.87459,0,0,0,1,.3999,35.81347,35.81347,0,0,1,5.8999,3.6001,3.38439,3.38439,0,0,0,1.19995.6001c11.5,7,27.30005-1,33.1001-12.6001a3.17453,3.17453,0,0,0,.3-.8999c.1001-.29981.30005-.5.3999-.79981,4.50025-10.60254-4.19971-20.20263-12.49975-25.90234a74.79825,74.79825,0,0,0-17.3-8.3999,106.20944,106.20944,0,0,0-20-4.8999q-2.67636-.37281-5.3675-.624c81.05848-45.0791,132.95118-103.9668,151.76813-174.57617C2838.273,1429.29447,2798.773,1318.99466,2699.773,1205.89456Zm7.7,530.89991c-.10009.5-.10009.5-.10009.2998C2707.37283,1736.99466,2707.47292,1736.89456,2707.47292,1736.79447ZM782.67269,1278.09476l1.228-1.80371c4.4917,4.91308,9.11279,9.70947,13.97217,14.30615,2.3999,2.29981,4.7998,4.5,7.2998,6.7002a6.189,6.189,0,0,0,2.7002,2c3.8999,1.5,7.70019,3.10009,11.60009,4.70019q2.84986,1.19971,5.7002,2.3999c.00562,0,.00977.00489.01538.00586-.03833-.0332-.07666-.06738-.115-.106a.31.31,0,0,1,.2002.10009,4.82052,4.82052,0,0,0,.70019.29981c.3999.20019.8999.3999,1.29981.6001,1,.3999,2,.8999,3,1.2998q11.40014,4.94971,22.7998,10.2002,22.5,10.5,44.29981,22.5c13.5,7.3999,26.70019,15.2998,40,22.8999a426.15486,426.15486,0,0,0,38.70019,19.70019,274.20771,274.20771,0,0,0,44.3999,15.39991c1.89991.5,3.89991.8999,5.79981,1.3999a5.36392,5.36392,0,0,0,4.3999-.8999,4.27211,4.27211,0,0,0,2.7998,2.10009c20.79981,3.29981,41.6001,6,62.39991,9.39991,16.7998,2.70019,33.5,6.10009,49.70019,11.5,16.8999,5.70019,32.2002,14.20019,47.2002,23.7998a616.4281,616.4281,0,0,1,53,38c16.5,13.29981,32.20019,27.5,48.1001,41.6001q21.75,19.34985,44.3999,37.70019c31.8999,26,65.20019,50.6001,100.70019,71.5,31.2002,18.39991,65.2002,35.2002,101.2002,41,3.2998.6001,6.5,1,9.7998,1.29981,11.29981,10.20019,23.6001,19.20019,35.29981,28.8999q3.21762,2.6499,6.45477,5.26416c-65.29486-13.62012-131.30048-29.48584-197.55487-47.56689-254.97339-69.71631-490.45264-165.85059-682.4397-277.478Q744.87649,1332.7703,782.67269,1278.09476Zm888.103-66.79834-.02094-.03174c.00922.01172.02118.023.03144.03418Zm251.88251,277.21045q-3.69718.00806-7.383.19043a167.28185,167.28185,0,0,0-60.20019,14.6001c-2.29981,1-4.6001,2.10009-6.89991,3.20019a2.94817,2.94817,0,0,0-1.3999,1.29981c-7.7998-2.39991-15.5-5-23.20019-7.89991-3.39991-1.2998-6.89991-2.60009-10.29981-4-.7998-.2998-1.6001-.70019-2.5-1a6.10082,6.10082,0,0,0-1.20019-.5h.10009c-.2998-.10009-.5-.20019-.7998-.2998-1.79981-.7002-3.5-1.5-5.29981-2.29981-6.70019-3-13.3999-6.20019-19.8999-9.5-6.3999-3.2998-12.70019-6.70019-18.8999-10.2998a347.11431,347.11431,0,0,0-7.6001-51.6001,227.34437,227.34437,0,0,0-17.6001-50.70019c-7.7998-15.7002-17.8999-30.39991-28.8999-44.2002-1.8999-2.3999-3.8999-4.7998-5.8999-7.1001a138.11893,138.11893,0,0,0-.2002-40.60009,121.74915,121.74915,0,0,0-12.3999-37.2002,115.14393,115.14393,0,0,0-10.6001-16.70019q-3.30029-4.34986-6.8999-8.39991-1.65015-1.80029-3.2998-3.60009c-.2002-.2002-.39991-.5-.6001-.7002l-.1001-.1001a.24727.24727,0,0,0,.05475.13135,66.24139,66.24139,0,0,1-5.75446-10.33154c-.5-1.1001-1-2.2002-1.5-3.2002-.20019-.6001-.5-1.1001-.70019-1.70019v-.2002c-.1001-.2998-.29981-.70019-.3999-1-1-2.3999-1.89991-4.7998-2.79981-7.20019-2-5.39991-3.8999-10.79981-5.5-16.29981-1.1001-3.8999-2.2998-8-3.1001-12,0-28.8999.5-57.70019,1-86.6001.5-27.60009,1-55.20019,1.1001-82.7998.1001-29.3999-.3999-58.8999-1.70019-88.29981-1.2002-26.60009-2-53.20019-4.29981-79.7998-2.2998-26.3999-5.7998-53.1001-14.2998-78.2998-.89991-2.7002-1.89991-5.39991-2.89991-8.1001.5-5.3999.39991-10.8003.39991-16.2002,0-6.7998.10009-14-1.39991-20.6997-.7998-3.7002-3.3999-6.8003-5.3999-10-2.7998-4.3003-5.5-8.7002-8.2998-13q-.44789-.69581-.89734-1.39161,20.17867,5.25879,40.39392,10.79c256.64093,70.17237,493.52826,167.11035,686.19714,279.67139C2234.74923,1138.23636,2091.39327,1318.15384,1922.65823,1488.50687ZM1382.49081,633.38822q18.813,21.73608,38.5852,42.60742c15.7002,16.3999,31.8999,32.30029,48.7002,47.5,2,1.80029,4,3.6001,6.10009,5.6001a103.94953,103.94953,0,0,1,6.5,11.80029c.1001.19971.7002,1.5.29981.7998l.6001,1.5c.3999,1.1001.7998,2.1001,1.20019,3.2002.7002,2,1.2002,4,1.7002,6,.5,2.1001.8999,4.1001,1.2998,6.19971a7.71187,7.71187,0,0,1,.2002,1.5c-.1001-.89991,0,0,0,.3999q.15015,1.65015.2998,3.30029c.29981,4.29981.3999,8.6001.29981,12.79981-.29981,9.8999-1.29981,19.80029-2.29981,29.60009-1.20019,11.1001-2.5,21-4.20019,32-3.29981,21.5-6.7002,42.89991-9.1001,64.5-2.29981,21.1001-3.79981,42.29981-4.29981,63.6001a522.4574,522.4574,0,0,0,2,63.79981c.2002,2.5.5,4.8999.79981,7.3999a.36624.36624,0,0,0,.1001.2998,32.76556,32.76556,0,0,0-4.6001,8.2002c-2.5,6.8999-2.5,14.6001-2.79981,21.7998-.2998,7.6001-.60009,15.29981-.70019,22.89991-.29981,15.3999-.3999,30.8999,0,46.2998.1001,7.1001.5,14.29981.3999,21.3999,0,3.5-.1001,6.89991-.3999,10.29981q-.15015,1.34985-.29981,2.70019c0,.29981-.10009.6001-.10009.89991,0,.10009-.1001.20019-.1001.3999-.29981,1.7998-.6001,3.5-.8999,5.20019-.39991,1.6001-.79981,3.2002-1.2002,4.7002-.2998.7998-.5,1.70019-.7998,2.5a3.57921,3.57921,0,0,0-.39991,1.1001,21.32933,21.32933,0,0,1-4.22613.97363.29817.29817,0,0,0,.126-.07373,38.83433,38.83433,0,0,1-4.89991.3999c-2.10009-9.7998-4.20019-19.5-6.10009-29.2998q-2.84987-13.94971-5.1001-27.89991c-.79981-4.7998-1.5-9.5-2.2002-14.2998-.20019-1.1001-.2998-2.2002-.5-3.29981v.2002c0-.2002-.10009-.79981-.10009-1q-.15015-1.0503-.29981-2.1001-.4497-3.59985-.8999-7.20019c-.29981-2.39991-.5-4.79981-.79981-7.2002a5.94777,5.94777,0,0,0-1.20019-3.1001l.20019-.20019a23.52439,23.52439,0,0,0,2.7002-6.29981c.7002-2.20019,1.2998-4.3999,1.8999-6.60009,1.29981-4.39991,2.3999-8.79981,3.3999-13.2002,1.89991-8.8999,3.1001-18.1001,2-27.20019a50.92388,50.92388,0,0,0-3.60009-14.29981,12.63967,12.63967,0,0,0-4.79981-5.8999,4.04875,4.04875,0,0,0-.8999-.5c4-6.6001,3.7998-15.29981.2002-22.1001a22.54,22.54,0,0,0-3.39991-4.70019,18.0447,18.0447,0,0,0-2.10009-1.79981c-.39991-.2998-.89991-.70019-1.29981-1-.1001-.1001-.20019-.1001-.2998-.20019v-.5a26.17239,26.17239,0,0,0-.1001-2.79981,22.75825,22.75825,0,0,0-1.8999-6.8999,20.77285,20.77285,0,0,0-8.39991-9.2002,17.82078,17.82078,0,0,0-5.7998-2.20019c-1.2002-.2002-2.29981-.3999-3.5-.5a2.34779,2.34779,0,0,1-.79981-.2002.098.098,0,0,1-.10009-.1001v-.10009l.10009.10009c0-.10009-.10009-.10009-.10009-.20019-.1001-.29981-.1001-.79981-.2002-1,0-.2002-.1001-.29981-.1001-.5a26.63394,26.63394,0,0,0-.8999-6.29981,19.13175,19.13175,0,0,0-8.6001-10.3999c-4.2998-2.5-9.3999-3.3999-14.2998-3.6001-2.1001-.10009-4.29981,0-6.3999.1001h-2.7002a5.6947,5.6947,0,0,1-1.2998-.1001,2.199,2.199,0,0,1-.79981-.10009c-.20019,0-1-.2002-.70019,0-.29981-.1001-.6001-.1001-.7002-.2002a5.74748,5.74748,0,0,1-1.3999-.3999.60116.60116,0,0,0-.3999-.1001c-.39991-.20019-.79981-.5-1.2002-.70019l-.2998-.29981c-.09961-.09961-.6001-.70019-.7002-.7998-.5-.7002-.8999-1.5-1.3999-2.2002a32.17241,32.17241,0,0,0-8.2002-9.3999,30.29424,30.29424,0,0,0-21.10009-6,34.0496,34.0496,0,0,0-12.1001,3.70019c-.3999.2002-.8999.39991-1.29981.6001,0,0-.70019.29981-.8999.3999a8.32223,8.32223,0,0,1-1.5.39991h-.8999a2.91672,2.91672,0,0,1-.8999-.2002,12.50539,12.50539,0,0,1-1.6001-.3999c-1-.29981-2-.5-3-.79981-8-2.20019-16.29981-4.20019-24.6001-3.8999a35.66055,35.66055,0,0,0-12.8999,2.8999,31.65946,31.65946,0,0,0-9.6001,7c-1.2998,1.29981-2.5,2.6001-3.7998,3.79981-.39991.3999-1,.70019-1.5,1.20019l-.2002.2002c-.20019.1001-.3999.2998-.6001.3999-.3999.2002-.7998.5-1.20019.7002q-.3003.15015-.6001.2998h-.104a.96624.96624,0,0,1-.299.07129,1.25421,1.25421,0,0,1-.29724.02881,4.16426,4.16426,0,0,1-.6001.2002h-.5c-.29981,0-.6001.10009-.79981.10009a22.73146,22.73146,0,0,1-2.60009-.20019,1.70115,1.70115,0,0,1-.7002-.1001c.1001,0,1.1001.2002.2002,0-.5-.1001-1-.1001-1.5-.2002-4.79981-.70019-9.39991-.8999-13.5,2.29981a12.08749,12.08749,0,0,0-3.79981,5.8999,20.46147,20.46147,0,0,0-.5,2.3999c-.1001.39991-.1001.79981-.20019,1.2002a8.74519,8.74519,0,0,0-.2002,1.6001,20.45943,20.45943,0,0,1-.5,2.3999c-.1001.20019-.1001.2998-.2002.5s-.2998.6001-.3999.7998l-.1001.1001a4.61783,4.61783,0,0,0-.70019.7002c-.3999.20019-.7002.5-1.1001.70019-2.6001,1.5-5.3999,2.29981-7.8999,3.8999a13.86829,13.86829,0,0,0-7,10.5c-.1001,1-.1001,1.89991-.2002,2.89991v2.60009a2.0729,2.0729,0,0,1-.20019.6001c0-.1001-.2002.29981-.3999.6001,0-.1001.10009-.1001.10009,0l-.20019.2002a.34949.34949,0,0,0,.1001-.2002c-.1001.1001-.1001.2002-.2002.2998l.1001-.10009a.31.31,0,0,0-.1001.20019v-.1001a.31.31,0,0,0-.1001.2002l-.2998.2998h-.1001l-.1001.1001c-.3999.29981-1.70019.8999-1.7998,1-.79981.3999-1.7002.79981-2.5,1.2002a24.6513,24.6513,0,0,0-4.5,2.5,25.77015,25.77015,0,0,0-7.7002,8.70019c-3.60009,6.79981-4.5,14.7002-4.60009,22.29981-.2002,9.5.2998,19.1001.8999,28.6001.6001,9.8999,1.6001,19.70019,2.7998,29.5.7002,5.10009,1.29981,10.20019,2.2002,15.2998.70019,4.6001,2.1001,9.1001,5.2998,12.5,3,3.2002,7.2002,4.7002,11,6.7002,1.7002.8999,3.39991,1.8999,5.1001,2.8999a21.93637,21.93637,0,0,1,2.5,1.70019,8.306,8.306,0,0,0,1.2002.79981,1.76207,1.76207,0,0,1,.5.3999c-.79981-.6001-.1001,0,.10009.1001a39.82528,39.82528,0,0,1,4.29981,3.8999,12.15465,12.15465,0,0,1,1.5,1.7002c0,.10009.1001.20019.20019.2998.1001.2002.29981.3999.39991.6001a1.37662,1.37662,0,0,1,.2998.3999c.29981.7002.6001,1.3999.8999,2,0,.1001.1001.2002.1001.2998v.1001c0,.1001.1001.29981.1001.3999.2998.7002.5,1.39991.7998,2.1001,1.7002,4.6001,3.1001,9.29981,4.5,14,2.79981,9.6001,5.89991,19.3999,11.89991,27.5a61.48518,61.48518,0,0,0,12,11.8999c4.2998,3.2002,8.5,6.7002,13.3999,8.79981a5.22353,5.22353,0,0,0,.6001,1.6001c3.10009,6,5.8999,12.10009,8.60009,18.3999,0,.1001.29981.70019.29981.7998.1001.2002.1001.39991.2998.5q.44971,1.0503.8999,2.1001c.7002,1.7002,1.39991,3.3999,2,5.1001,1.2002,3,2.29981,6.1001,3.39991,9.20019,1.20019,3.2002,2.2998,6.39991,3.2998,9.7002-7.5,1.7998-13.6001,7.2998-19.20019,12.2002-5.39991,4.70019-10.7002,9.3999-16.1001,14.10009-2.29981,2-4.7002,4.1001-7,6.1001a224.38423,224.38423,0,0,0-23.1001-12.6001,220.346,220.346,0,0,0-67.20019-19.7998,180.56487,180.56487,0,0,0-54.89991,1.5c-11.70019-6.5-23.7998-12.3999-36.10009-17.79981q-21-9.30029-42.6001-17c-14.7002-5.2998-29.6001-10-44.7002-14.20019-15.10009-4.29981-30.3999-8-45.7998-11.2002-15.29981-3.20019-30.7002-5.70019-46.1001-7.70019q-1.05029-.15015-2.1001-.29981-4.64959-10.84863-9.65991-21.53271l1.15942-1.46826c89.89991-114.7002,193.2002-228.89991,306.79981-338.29981C1250.98324,746.24417,1316.53164,687.78812,1382.49081,633.38822Zm48.282,395.40625c0-.1001-.1001-.1001-.1001-.2002C1430.77279,1028.59476,1430.77279,1028.69437,1430.77279,1028.79447Zm-1.3999-2.09961a.098.098,0,0,0-.1001-.1001C1429.37289,1026.59476,1429.37289,1026.59476,1429.37289,1026.69486Zm-2-18.7002-.1001.5A2.03039,2.03039,0,0,1,1427.37289,1007.99466Zm-20.69971-41.7998a.098.098,0,0,1-.1001-.1001l-.1001-.1001C1406.57308,966.09476,1406.67318,966.09476,1406.67318,966.19486Zm-120.6001-32.50049c-.1001.1001-.3999.1001,0,0Zm-5.6001,1.6001-.10009.10009c-.1001,0-.1001.1001-.1001,0S1280.37289,935.29447,1280.473,935.29447Zm295.30323-316.99805c-9.1001-11.5-18.89991-22.2998-29-32.8999-6.5-6.79981-13.2002-13.3999-19.89991-20-6.8999-6.79981-13.70019-13.69971-20.7998-20.1001q-2.74813-2.48437-5.6145-4.8667l4.4104-3.73486c.1001.1001.20019.1001.20019.20019,156.6001-116.5,313.2002-208.80029,459.1001-269.60009,118.6001-49.39991,223.5-75.2002,311.6-76.5,6.7998-.1001,13.5-.1001,20.1001.10009,78.8999,2.29981,139.3999,25.89991,180.10009,70.19971,44.1001,48,63,118.30029,56.29981,209-6.7002,90-38.2002,195.6001-93.6001,313.8999-23.58356,50.32813-50.92358,101.72754-81.68268,153.76514-195.1676-114.1084-434.838-212.28711-694.21716-283.165q-37.261-10.18432-74.398-19.43555C1584.31692,629.45218,1580.142,623.82669,1575.77621,618.29642ZM648.07113,808.795c.1001-3.89991.20019-7.8003.20019-11.7002,2.89991-.3999,5.7002-.8999,8.6001-1.2998,10-1.6001,20-3.6001,29.8999-5.8003,3.2002-.6997,6.39991-1.5,9.6001-2.2998,3.7002-.8999,4.79981-5.8003,2.2002-8.3999q-21-20.70045-42-41.3003c-1.2002-1.1997-2.39991-2.2998-3.5-3.3999,15.2998-10,30.3999-20.2998,45.3999-30.69971,4.7998-3.30029,9.6001-6.70019,14.3999-10.10009.1001-.1001.2002-.1001.29981-.2002a5.06663,5.06663,0,0,0,2-2.7998.9.9,0,0,1,.10009-.5,4.395,4.395,0,0,0-.60009-3.3003,6.03488,6.03488,0,0,0-2.29981-1.8999h-.1001a6.91376,6.91376,0,0,0-.7998-.2998c-7.5-2.8003-15-5.6001-22.6001-8.2002,9.1001-17.1001,18-34.2998,26.8999-51.3999,6.88636-13.17383,13.82813-26.34766,20.32325-39.731,142.0188-15.47656,292.39758-11.17578,464.07861,9.33106q75.29837,9.01317,152.936,22.498c-63.14868,52.52588-125.8139,108.63086-187.33587,167.90186-111.47852,107.394-213.22705,219.45312-302.28662,332.22119q-7.45276-13.78638-15.71338-27.12109c-8-12.89991-16.7002-25.1001-25.7002-37.29981-8.70019-11.70019-17.5-23.3999-26.5-34.8999-16.3999-21-33.6001-41.5-51.5-61.29981-15.7998-17.5-32-34.70019-49-51-3.20019-3.10009-6.3999-6.10009-9.7998-8.8999a33.2972,33.2972,0,0,0-9.5-5.3999c-5.29981-12.2002-12.1001-23.79981-23.2002-31.5a43.93575,43.93575,0,0,0-7.10425-3.97656l.0022-.02442C646.87093,840.29447,647.57113,824.49466,648.07113,808.795Zm30.602,95.0996a.098.098,0,0,1-.1001-.10009Zm-77.00049-96.1997a.08556.08556,0,0,1,.05567-.08936A.105.105,0,0,0,601.67269,807.69486Zm.60059-.40039c.2998-.19971.5-.1001.3999,0-.2002.10009-.3999.10009-.5.20019h-.1l.1-.1001A.098.098,0,0,0,602.27328,807.29447Zm-.40039.20019c0,.1001-.1001.1001,0,0a.75589.75589,0,0,1-.13892.10205,1.01159,1.01159,0,0,0-.46118.09815C601.473,807.59476,601.67318,807.59476,601.87289,807.49466Zm-23.20264,49.70069c.3999.8999.7998,1.70019,1.2002,2.60009.20019.5.3999.89991.60009,1.39991a.7576.7576,0,0,0,.2002.3999v-.1001c.1001.1001.1001.2002.20019.29981.79981,1.7998,1.5,3.70019,2.2002,5.60009,1.3999,3.7002,2.6001,7.5,3.70019,11.29981,1.2002,4.3999,2.29981,8.7998,3.1001,13.2998a13.683,13.683,0,0,1,2.2002,3.8999,5.40794,5.40794,0,0,0,1.56225,1.57813,5.47992,5.47992,0,0,1-2.26049-1.97656,3.50947,3.50947,0,0,1-.6001-1.39991,4.21048,4.21048,0,0,1-1.6001-2.5c-.7998-4.5-1.8999-8.8999-3.1001-13.2998-1.1001-3.7998-2.2998-7.6001-3.70019-11.2998-.7002-1.89991-1.39991-3.79981-2.2002-5.6001a1.60385,1.60385,0,0,0-.17651-.271c-.01966-.06836-.12378-.32861-.12378-.32861-.2002-.5-.3999-.8999-.6001-1.3999-.3999-.89991-.7998-1.7002-1.20019-2.6001a158.80749,158.80749,0,0,0-8.1272-15.16992c.07495-.07666.15051-.1543.22534-.23145A133.256,133.256,0,0,1,578.67025,857.19535Zm-38.7998-13.2002a14.993,14.993,0,0,0,1.3999,1.2002c2.30432,2.22265,4.61645,4.97168,7.36694,6.82763-3.02075-1.84179-5.49377-4.84326-7.96509-7.22607-.5-.3999-.8999-.79981-1.3999-1.2002a1.91692,1.91692,0,0,1-.59412-.41894c.16541.10547.33667.21386.49207.31738C539.47005,843.69535,539.67025,843.89505,539.87045,843.99515ZM486.17318,736.59476a3.54647,3.54647,0,0,1,.2002,1,1.87627,1.87627,0,0,1-.2002-.80029Zm26.79736,87.30029c5.39991,4.29981,10.79981,8.5,16.39991,12.6001,2.60009,1.8999,5.2998,3.8999,7.8999,5.7002a9.38889,9.38889,0,0,0,.78735.56982,13.22937,13.22937,0,0,1-1.3855-.96826c-2.60009-1.79981-5.2998-3.79981-7.8999-5.7002-5.6001-4.10009-11-8.2998-16.3999-12.60009-9.93274-7.96582-19.66626-16.22608-28.92676-24.86719.04175-.01123.08337-.02295.125-.03418C492.97054,807.39554,502.87045,815.79544,512.97054,823.89505ZM344.78243,681.73538c-2.80188.627-5.22668.62159-7.02453-.49511C340.09945,681.4097,342.44088,681.57035,344.78243,681.73538Zm193.49085,591.05909c-103.1001-77.2002-179.2002-154.79981-226.29981-230.79981-47.3999-76.5-62.8999-147.70019-46-211.3999,14.76343-55.58594,53.69239-103.41064,115.7854-142.60889,5.80493,6.87159,11.3927,13.97168,17.31275,20.80957,1.70019,29,2.70019,58.1001,4.20019,87.19971.3999,8.2002.79981,16.5,1.29981,24.7002a5.02033,5.02033,0,0,0,.20019,1.20019c0,.1001,0,.2002.1001.2002,0,.10009.1001.20019.1001.2998a4.82078,4.82078,0,0,1,.2998.7002c.1001.10009.2002.2998.29981.3999s.20019.20019.2998.2998l.29981.29981a1.3763,1.3763,0,0,0,.3999.2998c.1001.1001.20019.1001.2998.2002a5.22594,5.22594,0,0,0,5.29981.2998c4.7998-2.3999,9.70019-4.70019,14.6001-6.7998,1.10009-.5,2.2998-1,3.3999-1.5.3999-.2002.70019-.29981,1.1001-.5.10009-.1001.8999-.3999.10009,0,.6001-.29981,1.29981-.5,1.89991-.79981,2.5-1,5.10009-2.10009,7.60009-3,2.67664-1.01513,5.4325-2.03076,8.12232-3.04589.42627,14.68505,1.9668,29.44873,7.87915,43.04736a56.11141,56.11141,0,0,0,13.2998,18.70019c6.39991,5.89991,14,10.29981,21.39991,14.79981q22.80028,13.9497,46.5,26.3999c15.70019,8.29981,31.70019,16.1001,47.7998,23.3999,7.1001,3.2002,14.2998,6.29981,21.2002,9.89991a100.858,100.858,0,0,1,10,5.8999l2.10009,1.5c.39991.2998.79981.6001,1.1001.7998a1.38694,1.38694,0,0,1,.3999.29981l.1001.10009.1001.1001a50.45772,50.45772,0,0,1,4.20019,3.7002,49.89909,49.89909,0,0,1,3.89991,4.1001l.20019.20019c.8999,2,1.7002,4,2.6001,6,.20019.5.3999,1,.70019,1.6001.1001.2998.29981.6001.39991.8999v.1001a.34945.34945,0,0,0,.10009.20019q.75,1.8003,1.5,3.6001c2.1001,5.1001,4.2002,10.2002,6.2002,15.29981,4.2998,10.7998,8.3999,21.70019,12.5,32.60009,8.7998,23.39991,17.2998,46.89991,26.3999,70.2002,9.3999,24.1001,19.2002,48.1001,30.2002,71.5,10.3999,22.1001,21.8999,43.70019,35.5,63.8999,5.54712,8.2793,11.57812,16.27979,17.85754,24.01026l-2.45764,3.7871q-40.18836,57.8987-75.37256,115.28565A1752.03469,1752.03469,0,0,1,538.27328,1272.79447Zm557.59961,769.60009a101.302,101.302,0,0,0-145.6001-2c-27.3999,27.29981-36.79981,66.5-28,101.89991-53,13.20019-102.2002,20.20019-147,20.8999-88.79981,1.2998-156.1001-22.29981-200.2002-70.3999s-63-118.29981-56.2998-209c6.70019-90,38.20019-195.6001,93.6001-313.89991,23.94555-51.1416,51.83178-103.42919,83.24536-156.36718,194.48144,113.17187,432.7417,210.54541,690.45532,280.96777,82.22058,22.46777,164.01312,41.51318,244.62592,57.1084-173.94507,139.09961-350.24189,249.89844-514.22651,322.291A105.16457,105.16457,0,0,0,1095.87289,2042.39456ZM2507.073,1786.59476l.1001-.2002c0-.10009.1001-.10009.20019-.20019A1.39052,1.39052,0,0,1,2507.073,1786.59476Zm.6001-139.5c0-.09424.006-.09814.09021-.09863C2507.734,1647.02884,2507.70583,1647.06205,2507.67312,1647.09476Zm67.69971-5.40039c.10009.1001,0,.1001,0,0Zm207.50048-123.09961c-16.8999,63.7002-65.60009,117.2998-144.60009,159.2998-3.57691,1.898-13.01245,6.67188-19.83271,10.085a86.18454,86.18454,0,0,1-7.16754-6.78467c-1.3-1.3999-2.5-2.79981-3.7-4.2002-.1001-.20019-.5-.70019-.6001-.8999,0,.1001.1001.2002.3.5-.2-.2998-.5-.6001-.7-.8999q-.75-1.0503-1.5-2.1001c-.8999-1.3999-1.8-2.7998-2.6001-4.2998-.30005-.6001-.7-1.29981-1-1.89991-.10009-.20019-.10009-.3999-.2-.60009,0-.1001-.1001-.2002-.2-.29981-.1001-.20019-.19995-.5-.3-.70019-1.3-3.79981-2.5-7.6001-4-11.39991a45.82739,45.82739,0,0,0-7.1001-12.2998c-6.19995-7.7002-14.8-14.2002-24.59985-16.5a124.34711,124.34711,0,0,0-14.7998-2.79981c-5.7002-.70019-11.79981-.10009-17.39991.6001a68.92351,68.92351,0,0,0-10.10009,1.79981,33.36473,33.36473,0,0,0-7.29981,3.10009,54.99874,54.99874,0,0,0-13.7998,10.7002,23.66512,23.66512,0,0,0-5.1001,8.1001,28.753,28.753,0,0,0-1.2002,9.20019,58.49649,58.49649,0,0,0,2.5,17.1001,34.21589,34.21589,0,0,1-4.20019,2.2998c-.79981.39991-1.6001.79981-2.5,1.2002-.5.20019-.8999.3999-1.3999.6001a3.54794,3.54794,0,0,1-.89991.3999.71515.71515,0,0,1,.11512-.07666c-1.627.73633-3.408,1.30908-5.015,1.87646-3.6001,1.29981-7.2998,2.39991-11,3.6001-26.7998,1.6001-53.3999,4.8999-78.70019,13.8999a234.06542,234.06542,0,0,0-22.6001,9.39991.098.098,0,0,0-.1001.10009,160.53489,160.53489,0,0,0-38.5,22.7002,122.46583,122.46583,0,0,0-16.20019,16c-5.29981,6.20019-10.39991,12.70019-15.7002,18.8999a156.52929,156.52929,0,0,1-17.5,18c-5.5-8-11.2998-15.70019-17.5-23.20019a411.19781,411.19781,0,0,0-37.6-39.39991c0-.10009.1001-.2998.1001-.3999a184.778,184.778,0,0,1,8.6001-28.2998c.89264-2.38037,1.883-4.66309,2.77722-6.94434a.08294.08294,0,0,1-.07751.04443.31.31,0,0,1,.10009-.20019,2.01353,2.01353,0,0,1,.39991-.79981c.20019-.60009.5-1.10009.70019-1.70019.5-1.2002,1.1001-2.3999,1.6001-3.6001,2.1001-4.70019,4.2998-9.2998,6.6001-13.8999,9.39984-18.79981,19.99994-37,29.79974-55.6001,9.79981-18.5,19.1001-37.6001,25.3999-57.6001,1.6001-5.10009,3-10.20019,4.1001-15.3999,1.29981-5.6001,2.3999-11.2998,4-16.7998.7002-2.6001,1.79981-5.7002,2.6001-7.79981a64.21462,64.21462,0,0,1,3.5-6.8999,70.116,70.116,0,0,1,4.3999-6.7002q.59985-.75,1.2002-1.5l.10009-.10009c.2002-.29981.39991-.5.6001-.79981.8999-1.1001,1.79981-2.1001,2.7002-3.20019,7.3999-8.6001,15.8999-16.29981,23.70019-24.6001,8.29981-8.7002,16.29981-17.7002,24.7002-26.3999,2.10009-2.2002,4.20019-4.29981,6.3999-6.39991l.1001-.10009c12.5-5.89991,24.8999-11.79981,36.8999-18.79981,12.3999-7.2998,24.3999-15.70019,34.6001-25.8999a119.0086,119.0086,0,0,0,13.8999-16.8999c2.1001-3.2002,4-6.5,5.7998-9.79981,1-1.7998,2-3.5,3.1001-5.2998a18.80326,18.80326,0,0,1,1.6001-2.29981q.30029-.4497.6001-.8999l.2998-.2998c0,.10009-.1001.20019-.20019.2998l.10009-.1001a5.70926,5.70926,0,0,1,.7002-.7998c1-1.2002,2-2.2002,3.1001-3.29981a17.362,17.362,0,0,0,1.5-1.2998.34944.34944,0,0,1,.20019-.1001c.1001-.1001.29981-.2998.3999-.2998l-.20019.20019a3.11027,3.11027,0,0,0,.6001-.3999,55.79314,55.79314,0,0,1,7.10009-4.2998c2.5-1.29981,5.1001-2.5,7.7002-3.6001a.31.31,0,0,0,.2002-.1001,3.56535,3.56535,0,0,0,.8999-.3999c.70019-.29981,1.3999-.6001,2-.79981,1.3999-.60009,2.70019-1.10009,4.1001-1.70019,10.60009-4.3999,22-9.3999,28.20019-19.7002a20.9674,20.9674,0,0,0,1.5-3,5.01777,5.01777,0,0,0,.79981-4.20019c-2.1001-8.39991-8.89991-14.29981-16.79981-17.29981-8.5-3.2998-18-2.20019-26.5.7002q-.90015.30029-1.7998.6001c-.2002-.1001-.29981-.2002-.5-.2002a156.28162,156.28162,0,0,0-14.89991-5.5,99.00665,99.00665,0,0,0-32-3,62.117,62.117,0,0,0-18,4.7002,45.81745,45.81745,0,0,0-15.70019,11.10009,3.80066,3.80066,0,0,0-.8999,1.29981c-.39991.1001-.79981.1001-1.2002.20019a103.166,103.166,0,0,0-17.2998,4.79981c-12-6.2002-24.39991-11.79981-37.39991-15.2002a96.94871,96.94871,0,0,0-23.3999-3.1001c-7.2998.1001-15,1-21.7998,3.79981-6.6001,2.70019-12.5,6.8999-15.7002,13.5a63.91362,63.91362,0,0,0-4.1001,10.20019,37.43166,37.43166,0,0,0-1.10009,10c-.39991,13.79981,1.5,27.7002,3.5,41.29981.10009.7998.20019,1.5.2998,2.2998-10.1001,8.1001-20.6001,15.89991-30.7998,24-14.49994,11.79981-29.39985,24.6001-39.1,40.7002-5.29981,8.7998-10.79981,17.5-14.8999,26.8999-.1001.2002-.2002.5-.29981.7002a91.68208,91.68208,0,0,0-12.8999,3.8999c-19.2998,7.2998-36.2002,19.70019-49.8999,35.1001-13.7002,15.3999-24.3999,33.2998-33.29981,51.7998a254.07119,254.07119,0,0,0-18.8999,54.3999,307.03226,307.03226,0,0,0-25.20019-38.5,245.73653,245.73653,0,0,0-39.79981-41.10009,216.12831,216.12831,0,0,0-24.8999-17.7002,154.52119,154.52119,0,0,0-28.2002-13.2998q-6.43176-2.26831-13.05945-3.94385c163.16877-167.082,302.10254-342.876,405.93561-512.93359,51.17987,30.95312,99.023,63.0166,143.02173,95.9746,7.6001,5.7002,14.8999,11.29981,22.2002,17-12.1001,33.7002-7.1001,72.79981,16.5,102.6001a101.01526,101.01526,0,0,0,125,28c24.60009,27.8999,45.60009,55.7002,62.60009,83.2002C2784.27322,1383.69486,2799.77322,1454.89505,2782.87331,1518.59476Zm-276.10058-192a.77413.77413,0,0,1,.2998-.1001A.49231.49231,0,0,1,2506.77273,1326.59476Z"/>
    <path class="cls-1" d="M2668.67287,1749.29447c-.19995,0-.3-.1001-.5-.1001A1.08658,1.08658,0,0,0,2668.67287,1749.29447Z"/>
    <path class="cls-1" d="M825.18856,1306.40335a.31444.31444,0,0,0,.18482.09424A.38552.38552,0,0,0,825.18856,1306.40335Z"/>
    <path class="cls-1" d="M1453.77279,1187.19437a2.76387,2.76387,0,0,0,.8999-.1001A2.76387,2.76387,0,0,0,1453.77279,1187.19437Z"/>
    <path class="cls-1" d="M1257.58852,940.06058c.03278-.01074.11658-.03223.28437-.06592h-.09619A.83638.83638,0,0,1,1257.58852,940.06058Z"/>
    <path class="cls-1" d="M2240.07259,1683.99613l-.02258.05566A.17661.17661,0,0,0,2240.07259,1683.99613Z"/>
    <path class="cls-1" d="M1257.57394,940.066l.01458-.00537Z"/>
    <path class="cls-1" d="M2488.98843,1677.81937c.09381-.04248.19214-.08008.28479-.12354A1.549,1.549,0,0,0,2488.98843,1677.81937Z"/>
    <path class="cls-1" d="M1256.57308,940.29447c-.3999-.1001-.5,0-.3999,0Z"/>
  </g>
</svg>
